<svg width="500" height="500" viewBox="0 0 500 500" xmlns="http://www.w3.org/2000/svg">
  <defs>
    <linearGradient id="grad1" x1="0%" y1="0%" x2="100%" y2="100%">
      <stop offset="0%" style="stop-color:rgb(102,255,153);stop-opacity:1" />
      <stop offset="100%" style="stop-color:rgb(51,153,102);stop-opacity:1" />
    </linearGradient>
  </defs>
  <polygon points="250,150 300,200 250,250 200,200" fill="url(#grad1)" />
  <polygon points="300,200 350,250 300,300 250,250" fill="url(#grad1)" />
  <polygon points="250,250 300,300 250,350 200,300" fill="url(#grad1)" />
  <polygon points="200,200 250,250 200,300 150,250" fill="url(#grad1)" />
  <polygon points="200,200 150,250 100,200 150,150" fill="url(#grad1)" />
  <polygon points="300,200 350,150 400,200 350,250" fill="url(#grad1)" />
  <polygon points="250,350 300,300 350,350 300,400" fill="url(#grad1)" />
  <polygon points="250,350 200,300 150,350 200,400" fill="url(#grad1)" />
</svg>
