<?xml version="1.0" encoding="utf-8"?>
<svg width="805.04004" height="651.24669" viewBox="0 0 805.04004 651.24669" xmlns="http://www.w3.org/2000/svg">
  <defs/>
  <path d="M 497.64 43.01 C 486.772 40.206 475.76 38.311 464.682 37.336 C 414.662 33.122 365.564 48.958 321.835 78.394 C 278.106 107.831 237.167 144.538 199.563 184.968 C 190.225 195.008 181.067 205.334 172.285 216.11 C 124.154 275.201 -6.454 373.373 9.874 455.516 C 26.203 537.661 106.202 603.776 180.488 620.813 C 254.774 637.85 315.188 575.731 416.407 575.731 C 517.626 575.731 602.527 623.882 675.18 608.783 C 747.831 593.682 796.818 519.628 799.264 407.434 C 800.586 347.101 790.16 285.037 764.372 233.134 C 738.306 180.699 695.533 144.946 651.914 117.188 C 605.885 87.902 555.775 59.53 505.188 45.043 C 502.669 44.325 500.152 43.646 497.64 43.01 Z" style="opacity: 0.7; fill-opacity: 0.36; fill: rgb(10, 166, 128);"/>
  <path d="M 229.501 357.036 C 221.962 356.564 218.451 357.931 216.185 359.321 C 215.457 359.768 214.739 360.291 214.06 360.856 C 217.486 354.385 220.996 347.943 224.573 341.546 C 224.596 342.404 224.759 342.812 225.165 343.016 C 226.092 343.482 228.256 341.99 232.545 338.988 C 235.805 336.705 236.222 336.127 236.464 335.73 C 237.316 334.336 237.244 333.188 236.718 328.18 C 235.776 319.193 235.533 318.349 235.99 316.227 C 236.148 315.496 236.577 313.734 236.272 313.634 C 235.958 313.53 235.472 315.378 233.737 316.583 C 232.046 317.757 230.857 317.151 229.321 317.907 C 227.335 318.885 226.789 321.145 225.966 324.785 C 225.239 328.008 225.424 329.148 224.991 335.221 C 224.867 336.94 224.751 338.28 224.671 339.333 C 221.469 345.033 218.326 350.774 215.241 356.537 C 215.283 356.379 215.322 356.23 215.356 356.1 C 216.311 352.456 215.993 350.775 215.513 349.594 C 214.736 347.68 213.19 346.534 210.132 344.32 C 207.135 342.152 204.6 340.903 201.554 339.42 C 197.561 337.475 195.565 336.503 195.024 336.788 C 193.663 337.501 193.865 341.24 195.001 345.918 C 192.415 344.677 191.042 344.095 190.608 344.322 C 190.42 344.421 190.264 344.578 190.135 344.785 C 188.201 344.697 185.639 344.799 182.707 345.156 C 185.02 344.378 187.62 343.351 190.42 341.95 C 192.848 340.736 194.06 340.118 193.943 339.607 C 193.528 337.781 176.951 337.818 162.742 344.761 C 156.051 348.03 153.827 350.904 152.676 353.193 C 152.307 353.928 151.989 354.724 151.728 355.537 C 151.011 348.352 150.382 341.152 149.835 333.959 C 150.338 334.679 150.706 334.947 151.167 334.924 C 152.219 334.868 153.225 332.544 155.193 327.897 C 156.689 324.364 156.719 323.667 156.703 323.212 C 156.646 321.609 155.938 320.665 152.676 316.654 C 146.822 309.452 146.141 308.852 145.338 306.82 C 145.061 306.121 144.438 304.411 144.121 304.473 C 143.796 304.537 144.419 306.349 143.618 308.221 C 142.838 310.046 141.482 310.108 140.599 311.5 C 139.456 313.3 140.26 315.493 141.605 318.996 C 142.795 322.097 143.595 322.978 146.637 328.364 C 147.5 329.89 148.152 331.088 148.677 332.026 C 149.15 338.442 149.699 344.865 150.308 351.279 C 150.254 351.123 150.204 350.978 150.161 350.851 C 148.927 347.281 147.71 346.002 146.637 345.229 C 144.9 343.977 142.939 343.753 139.089 343.356 C 135.315 342.966 132.453 343.136 129.023 343.356 C 124.528 343.643 122.28 343.787 121.978 344.292 C 121.149 345.68 123.95 349.242 128.134 353.051 C 124.718 353.276 122.977 353.443 122.714 353.883 C 122.027 355.034 123.842 357.685 126.867 360.729 C 124.765 360.897 123.656 361.074 123.45 361.418 C 121.142 365.286 146.934 386.005 152.639 382.031 C 153.071 381.728 153.378 381.285 153.59 380.745 C 153.683 381.476 153.779 382.207 153.875 382.938 C 147.135 382.232 134.189 384.123 126.508 391.606 C 122.689 395.327 122.113 398.539 121.978 399.57 C 121.378 404.147 123.77 409.016 125.755 409.374 C 126.34 412.781 128.177 415.598 129.684 415.574 C 131.573 415.543 131.239 411.075 135.722 406.204 C 138.852 402.806 142.572 401.117 144.781 400.114 C 149.526 397.961 152.282 398.024 155.7 396.27 C 155.769 396.743 155.842 397.215 155.912 397.687 C 149.651 398.665 142.501 401.164 137.546 405.993 C 133.728 409.713 133.152 412.925 133.017 413.956 C 132.647 416.775 133.416 419.703 134.523 421.625 C 131.512 424.569 130.679 427.644 129.023 433.768 C 127.966 437.681 128.197 439.069 129.023 439.858 C 129.707 440.51 130.787 440.743 135.063 440.326 C 139.701 439.874 142.019 439.648 144.121 438.921 C 147.446 437.772 149.738 435.796 154.186 431.894 C 156.015 430.289 157.563 428.926 158.823 427.737 C 159.479 427.945 160.095 428.104 160.717 428.218 C 160.789 428.231 160.86 428.241 160.932 428.254 C 162.08 434.582 163.291 440.892 164.567 447.175 C 160.417 448.037 156.872 450.58 154.924 454.238 L 139.53 483.149 C 138.558 484.973 138.044 487.015 138.044 489.052 L 138.044 563.391 C 138.044 570.72 144.449 576.684 152.324 576.684 L 188.256 576.684 C 196.131 576.684 202.537 570.72 202.537 563.391 L 202.537 494.939 C 202.537 493.27 202.205 491.636 201.55 490.082 L 186.878 455.286 C 184.757 450.254 179.687 446.978 173.906 446.861 C 176.904 439.5 179.995 432.149 183.197 424.826 C 183.689 424.649 184.125 424.464 184.505 424.267 C 185.096 424.87 186.305 425.573 188.87 426.715 C 193.077 428.588 195.181 429.524 197.38 429.928 C 200.86 430.568 203.923 430 209.907 428.841 C 218.05 427.262 222.139 426.428 222.99 424.223 C 224.169 421.171 220.472 417.239 219.453 416.155 C 217.238 413.8 214.793 412.726 213.282 412.081 C 211.321 411.242 205.73 408.852 198.972 410.5 C 194.718 411.537 192.282 413.753 187.409 418.185 C 186.94 418.611 186.535 418.999 186.175 419.361 C 186.095 419.144 186.003 418.93 185.902 418.717 C 186.586 417.183 187.27 415.65 187.961 414.12 C 192.958 409.707 195.417 407.278 194.95 405.192 C 194.73 404.213 194.068 403.39 193.215 402.705 C 194.163 400.679 195.113 398.655 196.075 396.637 C 196.517 396.627 196.972 396.608 197.463 396.565 C 200.038 396.339 202.953 396.083 203.264 394.932 C 203.429 394.323 202.862 393.433 201.749 392.431 C 203.357 392.013 205.808 388.965 211.307 387.316 C 215.883 385.943 220.003 386.315 222.449 386.537 C 228.761 387.107 230.821 389.015 236.497 388.516 C 239.071 388.29 241.987 388.035 242.297 386.883 C 242.437 386.367 242.047 385.646 241.248 384.828 C 242.678 385.011 244.209 385.157 245.839 385.244 C 248.591 385.392 249.97 385.455 250.158 384.963 C 250.83 383.204 236.683 375.165 220.67 374.162 C 216.783 373.919 213.972 374.166 211.844 374.652 C 216.963 372.873 224.58 370.17 232.942 372.358 C 235.821 373.112 241.647 375.194 250.255 375.655 C 253.006 375.801 254.386 375.864 254.574 375.374 C 255.245 373.615 241.109 365.581 225.105 364.573 C 228.82 363.875 232.987 363.679 237.358 364.823 C 240.236 365.577 246.063 367.658 254.67 368.119 C 257.422 368.266 258.801 368.33 258.989 367.838 C 259.661 366.079 245.513 358.038 229.501 357.036 Z M 155.533 387.839 C 155.75 387.68 155.962 387.522 156.167 387.363 C 156.534 387.865 156.922 388.251 157.31 388.496 C 157.351 388.697 157.395 388.896 157.445 389.092 C 156.898 389.037 156.313 389.001 155.693 388.981 C 155.64 388.601 155.584 388.22 155.533 387.839 Z M 187.157 361.479 C 187.219 361.812 187.286 362.152 187.362 362.501 C 186.677 362.379 185.893 362.292 185.037 362.24 C 185.721 362.009 186.425 361.757 187.157 361.479 Z M 188.786 367.781 C 188.26 367.732 187.699 367.699 187.108 367.682 C 187.57 367.355 188.027 367.023 188.449 366.692 C 188.558 367.053 188.67 367.416 188.786 367.781 Z M 176.671 378.636 C 182.089 376.267 184.895 376.772 189.338 373.664 C 189.751 373.375 190.175 373.078 190.587 372.779 C 192.061 376.437 193.825 379.928 195.643 382.457 C 190.554 380.065 183.56 378.121 176.671 378.636 Z M 189.716 348.456 C 189.879 350.453 190.405 352.991 191.188 355.718 C 191.143 355.718 191.099 355.717 191.054 355.717 C 189.11 354.807 188.039 354.402 187.664 354.598 C 187.274 354.802 187.012 355.257 186.864 355.909 C 180.753 356.451 172.516 358.189 164.949 361.887 C 158.259 365.155 156.035 368.029 154.884 370.319 C 154.394 371.295 153.993 372.377 153.699 373.464 C 153.548 372.203 153.393 370.945 153.247 369.681 C 156.535 368.491 161.508 356.986 173.813 353.737 C 176.6 353.001 182.449 351.973 189.716 348.456 Z M 153.916 388.975 C 154.007 388.914 154.094 388.86 154.186 388.796 C 154.327 388.697 154.468 388.599 154.61 388.499 C 154.632 388.655 154.655 388.81 154.676 388.967 C 154.427 388.967 154.174 388.97 153.916 388.975 Z M 156.642 395.747 C 157.039 395.511 157.443 395.257 157.866 394.961 C 158.503 394.516 159.164 394.053 159.765 393.591 C 160.231 394.028 160.708 394.284 161.156 394.276 C 161.332 394.273 161.483 394.221 161.626 394.144 C 161.241 395.218 161.013 396.27 160.941 397.206 C 159.675 397.248 158.321 397.354 156.906 397.541 C 156.817 396.943 156.728 396.345 156.642 395.747 Z M 172.835 446.849 L 167.718 446.849 C 166.985 446.849 166.264 446.904 165.556 447.003 C 164.302 440.824 163.109 434.621 161.979 428.399 C 164.988 428.709 167.99 428.149 173.244 427.131 C 176.965 426.409 179.831 425.843 181.937 425.23 C 178.804 432.415 175.773 439.627 172.835 446.849 Z M 184.814 416.88 C 185.235 416.515 185.68 416.124 186.144 415.717 C 185.86 416.349 185.585 416.983 185.302 417.615 C 185.144 417.361 184.981 417.117 184.814 416.88 Z M 187.401 400.039 C 184.19 399.11 181.502 399.386 179.852 399.57 C 177.783 399.803 172.021 400.461 167.275 404.731 C 165.691 404.693 163.898 404.774 161.987 404.998 C 163.005 404.563 164.058 403.998 165.225 403.182 C 167.292 401.735 169.633 400.098 169.251 398.966 C 169.074 398.442 168.3 398.008 167.102 397.698 C 168.451 396.866 170.127 396.008 172.274 395.364 C 176.849 393.992 180.97 394.364 183.416 394.585 C 188.711 395.064 191.02 396.478 194.976 396.629 C 194.107 398.455 193.248 400.289 192.39 402.123 C 190.554 400.956 188.285 400.294 187.401 400.039 Z M 199.045 390.456 C 199.08 390.383 199.114 390.311 199.149 390.239 C 199.423 390.21 199.693 390.178 199.957 390.143 C 199.976 390.512 200.026 390.847 200.105 391.145 C 199.777 390.916 199.418 390.686 199.045 390.456 Z M 207.353 376.447 C 207.329 376.462 207.304 376.48 207.281 376.495 C 207.338 376.299 207.394 376.112 207.447 375.928 C 207.898 375.869 208.413 375.752 208.988 375.587 C 208.372 375.862 207.833 376.153 207.353 376.447 Z" style="fill: rgb(111, 194, 120);"/>
  <g style="" transform="matrix(0.735914, 0, 0, 0.685032, 96.150696, 131.405899)">
    <polygon points="241.17251 640.85807 256.4246 640.85658 263.68011 582.02643 241.16945 582.02801 241.17251 640.85807" fill="#ffb6b6"/>
    <path d="M293.42808,640.51208h0c.4749,.79982,.72548,3.38126,.72548,4.31137h0c0,2.85894-2.31759,5.17662-5.17662,5.17662h-47.23394c-1.95035,0-3.53151-1.58107-3.53151-3.53151v-1.9665s-2.33662-5.91036,2.47406-13.19519c0,0,5.97903,5.70414,14.91325-3.23007l2.63462-4.77281,19.07102,13.94758,10.57078,1.30116c2.31267,.28464,4.36307-.04418,5.55268,1.95935h.00019Z" style="fill: rgb(31, 31, 61);"/>
  </g>
  <g style="" transform="matrix(0.735914, 0, 0, 0.685032, 96.150696, 131.405899)">
    <polygon points="325.17251 640.85807 340.4246 640.85658 347.68011 582.02643 325.16945 582.02801 325.17251 640.85807" fill="#ffb6b6"/>
    <path d="M377.42808,640.51208h0c.4749,.79982,.72548,3.38126,.72548,4.31137h0c0,2.85894-2.31759,5.17662-5.17662,5.17662h-47.23394c-1.95035,0-3.53151-1.58107-3.53151-3.53151v-1.9665s-2.33662-5.91036,2.47406-13.19519c0,0,5.97903,5.70414,14.91325-3.23007l2.63462-4.77281,19.07102,13.94758,10.57078,1.30116c2.31267,.28464,4.36307-.04418,5.55268,1.95935h.00019Z" style="fill: rgb(31, 31, 61);"/>
  </g>
  <path d="M 330.941 249.606 C 330.941 249.606 343.868 244.125 352.123 249.606 C 360.378 255.086 367.736 304.409 358.906 312.629 C 350.075 320.849 335.357 302.353 335.357 302.353 L 330.941 249.606 Z" fill="#ffb6b6" style=""/>
  <path d="M 282.082 250.259 C 282.082 250.259 269.154 244.778 260.901 250.259 C 252.646 255.739 245.286 305.061 254.118 313.282 C 262.949 321.502 277.667 303.006 277.667 303.006 L 282.082 250.259 Z" fill="#ffb6b6" style=""/>
  <path d="M 282.45 310.884 C 282.45 310.884 278.035 329.38 272.884 337.6 L 310.415 358.151 L 339.851 340.34 C 339.851 340.34 325.869 319.105 328.077 312.939 L 282.45 310.884 Z" fill="#ffb6b6" style=""/>
  <g style="" transform="matrix(0.735914, 0, 0, 0.685032, 96.150696, 131.405899)">
    <polygon points="600.62661 637.85995 581.03981 637.85804 571.72225 562.30808 600.63055 562.31011 600.62661 637.85995" fill="#ffb6b6"/>
    <path d="M533.51976,637.41563h0c-.60986,1.02713-.93166,4.34223-.93166,5.53669h0c0,3.67146,2.97626,6.64784,6.64784,6.64784h60.65805c2.50465,0,4.53519-2.03042,4.53519-4.53519v-2.52539s3.00069-7.59011-3.1772-16.94533c0,0-7.6783,7.32528-19.15166-4.14808l-3.38339-6.12927-24.4911,17.91155-13.57505,1.67096c-2.96994,.36554-5.60307-.05673-7.13077,2.51621h-.00024Z" style="fill: rgb(31, 31, 61);"/>
  </g>
  <g style="" transform="matrix(0.735914, 0, 0, 0.685032, 96.150696, 131.405899)">
    <polygon points="661.17138 637.85995 641.58458 637.85804 632.26702 562.30808 661.17531 562.31011 661.17138 637.85995" fill="#ffb6b6"/>
    <path d="M594.06453,637.41563h0c-.60986,1.02713-.93166,4.34223-.93166,5.53669h0c0,3.67146,2.97626,6.64784,6.64784,6.64784h60.65805c2.50465,0,4.53519-2.03042,4.53519-4.53519v-2.52539s3.00069-7.59011-3.1772-16.94533c0,0-7.6783,7.32528-19.15166-4.14808l-3.38339-6.12927-24.4911,17.91155-13.57505,1.67096c-2.96994,.36554-5.60307-.05673-7.13077,2.51621h-.00024Z" style="fill: rgb(31, 31, 61);"/>
  </g>
  <g style="" transform="matrix(0.735914, 0, 0, 0.685032, 96.150696, 131.405899)">
    <path d="M559.87774,202.03374s-2.8368,18.25975,.44853,30.04219l-48.24223,85.54714,18.76617,13.67763,62.67044-78.85065,8.68465-38.9589-42.32756-11.45741Z" fill="#ffb6b6"/>
    <ellipse cx="514.78625" cy="336.30896" rx="24.50622" ry="15.13619" transform="translate(-31.019 619.51423) rotate(-60.58023)" fill="#ffb6b6"/>
  </g>
  <path d="M 522.023 329.428 C 522.023 329.428 505.049 340.578 510.884 357.222 L 506.111 413.366 L 516.718 528.903 L 539.569 528.903 L 543.24 445.954 L 558.092 393.616 L 560.017 528.903 L 588.326 528.41 C 588.326 528.41 589.917 460.766 587.796 456.816 C 585.674 452.866 587.796 456.034 587.796 456.034 L 605.3 376.817 L 602.647 322.516 L 522.023 329.428 Z" style="fill: rgb(31, 31, 61);"/>
  <polygon points="563.927 191.671 533.162 202.533 536.344 210.434 510.884 228.209 527.858 283.509 518.31 332.885 545.892 331.897 605.3 326.959 598.935 266.721 599.996 208.459 576.657 200.558 563.927 191.671" style="fill: rgb(111, 194, 120);"/>
  <path d="M 518.841 226.728 L 510.884 228.209 C 510.884 228.209 507.171 230.678 507.171 239.565 C 507.171 248.452 507.171 254.378 508.232 259.315 C 508.232 259.315 501.867 275.115 503.988 279.065 C 506.111 283.015 532.631 283.015 532.631 283.015 L 518.841 226.728 Z" style="fill: rgb(111, 194, 120);"/>
  <path d="M 562.682 168.757 C 562.682 181.188 551.856 191.267 538.5 191.267 C 525.144 191.267 514.317 181.188 514.317 168.757 C 514.317 156.325 525.144 146.246 538.5 146.246 C 551.856 146.246 562.682 156.325 562.682 168.757 Z" fill="#ffb6b6" style=""/>
  <path d="M 553.611 184.431 C 553.611 184.431 557.896 169.11 553.331 171.812 L 546.246 171.185 L 550.72 160.047 C 550.72 160.047 542.711 154.459 539.519 157.725 C 536.326 160.992 537.091 162.834 534.189 158.585 C 531.287 154.335 525.223 154.416 519.669 157.474 C 514.114 160.531 509.774 161.034 510.83 155.361 C 511.885 149.687 511.293 140.047 514.59 141.14 C 517.888 142.233 516.984 142.851 518.763 138.888 C 520.541 134.926 520.765 132.728 524.881 134.423 C 528.996 136.118 539.34 128.161 543.615 132.974 C 547.889 137.789 551.622 138.562 555.356 139.337 C 559.089 140.111 574.09 137.888 572.835 159.514 C 572.835 159.514 582.847 178.145 564.813 186.753 C 564.813 186.753 559.918 182.256 556.501 187.721 L 553.611 184.431 Z" style="fill: rgb(31, 31, 61);"/>
  <path d="M 321.454 232.79 L 297.905 233.475 L 285.394 247.861 L 271.412 250.601 C 271.412 250.601 266.996 288.963 273.62 302.664 C 280.243 316.365 277.299 320.475 277.299 320.475 L 330.285 319.789 C 330.285 319.789 328.813 310.485 337.644 302.464 L 342.072 287.207 C 344.44 279.051 343.633 270.378 339.795 262.722 L 330.285 243.751 L 322.19 241.011 L 321.454 232.79 Z" style="fill: rgb(31, 31, 61);"/>
  <path d="M 277.299 328.695 L 273.987 333.833 C 273.987 333.833 263.685 346.848 262.213 383.84 C 260.741 420.832 272.884 540.531 272.884 540.531 L 289.688 540.531 L 307.855 378.584 L 332.124 540.713 L 353.834 541.055 L 351.994 375.62 C 351.994 375.62 347.579 337.943 335.804 329.722 C 335.804 329.722 297.905 361.577 277.299 328.695 Z" style="fill: rgb(31, 31, 61);"/>
  <g style="" transform="matrix(0.735914, 0, 0, 0.685032, 96.150696, 131.405899)">
    <path d="M204.50705,169.53298c0,10.3817-.62537,18.10648-11.96219,18.79773-10.64788,.64924-11.96219-8.41603-11.96219-18.79773s.24795-18.71364,11.96219-18.79773c13.33682-.09574,11.96219,8.41603,11.96219,18.79773Z" style="fill: rgb(111, 194, 120);"/>
    <path d="M271.15354,169.53298c0,10.3817,2.72814,18.10653-11.96219,18.79773-11.30138,.53174-11.96219-8.41603-11.96219-18.79773s1.66011-17.63281,11.96219-18.79773c9.69033-1.09574,11.96219,8.41603,11.96219,18.79773Z" style="fill: rgb(111, 194, 120);"/>
    <rect x="194.25374" y="160.98856" width="66.64649" height="15.37996" style="fill: rgb(111, 194, 120);"/>
  </g>
  <g style="" transform="matrix(0.735914, 0, 0, 0.685032, 96.150696, 131.405899)">
    <path d="M319.50705,166.53298c0,10.3817-.62537,18.10648-11.96219,18.79773-10.64788,.64924-11.96219-8.41603-11.96219-18.79773s.24795-18.71364,11.96219-18.79773c13.33682-.09574,11.96219,8.41603,11.96219,18.79773Z" style="fill: rgb(111, 194, 120);"/>
    <path d="M386.15354,166.53298c0,10.3817,2.72814,18.10653-11.96219,18.79773-11.30138,.53174-11.96219-8.41603-11.96219-18.79773s1.66011-17.63281,11.96219-18.79773c9.69033-1.09574,11.96219,8.41603,11.96219,18.79773Z" style="fill: rgb(111, 194, 120);"/>
    <rect x="309.25374" y="157.98856" width="66.64649" height="15.37996" style="fill: rgb(111, 194, 120);"/>
  </g>
  <g style="" transform="matrix(0.735914, 0, 0, 0.685032, 96.150696, 131.405899)">
    <path d="M493.50705,330.53298c0,10.3817-.62537,18.10648-11.96219,18.79773-10.64788,.64924-11.96219-8.41603-11.96219-18.79773s.24795-18.71364,11.96219-18.79773c13.33682-.09574,11.96219,8.41603,11.96219,18.79773Z" style="fill: rgb(111, 194, 120);"/>
    <path d="M560.15354,330.53298c0,10.3817,2.72814,18.10653-11.96219,18.79773-11.30138,.53174-11.96219-8.41603-11.96219-18.79773s1.66011-17.63281,11.96219-18.79773c9.69033-1.09574,11.96219,8.41603,11.96219,18.79773Z" style="fill: rgb(111, 194, 120);"/>
    <rect x="483.25374" y="321.98856" width="66.64649" height="15.37996" style="fill: rgb(111, 194, 120);"/>
  </g>
  <ellipse cx="348.634" cy="247.257" rx="9.561" ry="14.41" fill="#ffb6b6" style=""/>
  <circle cx="281.65354" cy="100.5" r="35.5" fill="#ffb6b6" style="" transform="matrix(0.735914, 0, 0, 0.685032, 96.150696, 131.405899)"/>
  <path d="M 298.179 207.892 L 304.224 198.938 L 306.945 186.761 C 306.945 186.761 334.481 193.012 327.094 180.509 C 319.706 168.005 300.901 164.879 288.141 174.258 L 282.641 179.259 C 282.641 179.259 294.856 168.63 287.469 164.879 C 280.081 161.128 281.424 158.628 277.394 161.754 C 273.365 164.879 275.379 167.38 270.679 165.505 C 265.977 163.629 255.903 161.128 257.246 164.254 C 258.59 167.38 248.457 175.508 252.18 179.259 C 255.903 183.01 252.545 190.512 259.261 188.636 C 265.977 186.761 262.619 196.139 268.664 192.387 C 268.664 192.387 263.702 198.273 267.732 202.649 C 271.762 207.025 277.97 208.728 277.299 214.98 C 276.627 221.231 292.753 222.514 292.753 222.514 L 291.498 204.266 C 291.498 204.266 295.492 201.217 298.179 207.892 Z" style="fill: rgb(31, 31, 61);"/>
  <g style="" transform="matrix(0.735914, 0, 0, 0.685032, 96.150696, 131.405899)">
    <path d="M635.952,172.91127s-5.23404,17.72205-3.54078,29.83617l-59.1644,78.39133,16.78586,16.04623,72.57675-69.83999,13.77611-37.46248-40.43354-16.97125Z" fill="#ffb6b6"/>
    <ellipse cx="573.44631" cy="300.01798" rx="24.50622" ry="15.13619" transform="translate(-11.47536 576.99832) rotate(-52.957)" fill="#ffb6b6"/>
  </g>
  <path d="M 595.71 205.215 C 595.71 205.215 609.274 209.795 607.548 218.481 C 605.823 227.166 605.168 232.891 605.168 232.891 C 605.168 232.891 606.638 237.635 604.72 240 C 602.803 242.365 592.96 270.091 592.96 270.091 L 557.558 258.827 C 557.558 258.827 578.312 205.363 595.71 205.215 Z" style="fill: rgb(111, 194, 120);"/>
  <path d="M 273.95 247.909 C 273.95 255.868 269.669 262.32 264.388 262.32 C 259.108 262.32 254.827 255.868 254.827 247.909 C 254.827 239.951 259.108 233.499 264.388 233.499 C 269.669 233.499 273.95 239.951 273.95 247.909 Z" fill="#ffb6b6" style=""/>
</svg>
