<?xml version="1.0" encoding="UTF-8" standalone="no" ?>
<!DOCTYPE svg PUBLIC "-//W3C//DTD SVG 1.1//EN" "http://www.w3.org/Graphics/SVG/1.1/DTD/svg11.dtd">
<svg xmlns="http://www.w3.org/2000/svg" xmlns:xlink="http://www.w3.org/1999/xlink" version="1.1" width="974" height="580" viewBox="0 0 974 580" xml:space="preserve">
<desc>Created with Fabric.js 3.6.6</desc>
<defs>
</defs>
<g transform="matrix(1.36 0 0 1.36 496.25 280.5)"  >
<g style=""   >
		<g transform="matrix(1 0 0 1 -7.31 9.71)" id="freepik--background-simple--inject-17"  >
<path style="stroke: none; stroke-width: 1; stroke-dasharray: none; stroke-linecap: butt; stroke-dashoffset: 0; stroke-linejoin: miter; stroke-miterlimit: 4; fill: rgb(146,227,169); fill-rule: nonzero; opacity: 1;"  transform=" translate(-367.69, -259.71)" d="M 452 49.16 A 220.8 220.8 0 0 0 422.35 45 c -45 -3.09 -89.17 8.52 -128.51 30.1 s -76.17 48.49 -110 78.13 c -8.4 7.36 -16.64 14.93 -24.54 22.83 C 116 219.38 -1.5 291.35 13.19 351.57 S 99.85 460.26 166.68 472.75 S 287.86 439.7 378.92 439.7 S 546.36 475 611.72 463.93 s 109.43 -65.36 111.63 -147.61 c 1.19 -44.23 -8.19 -89.73 -31.39 -127.78 c -23.45 -38.44 -61.93 -64.65 -101.17 -85 c -41.41 -21.47 -86.49 -42.27 -132 -52.89 Q 455.39 49.86 452 49.16 Z" stroke-linecap="round" />
</g>
		<g transform="matrix(1 0 0 1 -7.31 9.71)" id="freepik--background-simple--inject-17"  >
<path style="stroke: none; stroke-width: 1; stroke-dasharray: none; stroke-linecap: butt; stroke-dashoffset: 0; stroke-linejoin: miter; stroke-miterlimit: 4; fill: rgb(255,255,255); fill-rule: nonzero; opacity: 0.7000000000000001;"  transform=" translate(-367.69, -259.71)" d="M 452 49.16 A 220.8 220.8 0 0 0 422.35 45 c -45 -3.09 -89.17 8.52 -128.51 30.1 s -76.17 48.49 -110 78.13 c -8.4 7.36 -16.64 14.93 -24.54 22.83 C 116 219.38 -1.5 291.35 13.19 351.57 S 99.85 460.26 166.68 472.75 S 287.86 439.7 378.92 439.7 S 546.36 475 611.72 463.93 s 109.43 -65.36 111.63 -147.61 c 1.19 -44.23 -8.19 -89.73 -31.39 -127.78 c -23.45 -38.44 -61.93 -64.65 -101.17 -85 c -41.41 -21.47 -86.49 -42.27 -132 -52.89 Q 455.39 49.86 452 49.16 Z" stroke-linecap="round" />
</g>
		<g transform="matrix(1 0 0 1 8.06 163.15)" id="freepik--Floor--inject-17"  >
<line style="stroke: rgb(0,0,0); stroke-width: 1; stroke-dasharray: none; stroke-linecap: butt; stroke-dashoffset: 0; stroke-linejoin: miter; stroke-miterlimit: 10; fill: rgb(38,50,56); fill-rule: nonzero; opacity: 1;"  x1="345.21" y1="0" x2="-345.21" y2="0" />
</g>
		<g transform="matrix(1 0 0 1 -281.2 52.32)" id="freepik--Plant--inject-17"  >
<path style="stroke: none; stroke-width: 1; stroke-dasharray: none; stroke-linecap: butt; stroke-dashoffset: 0; stroke-linejoin: miter; stroke-miterlimit: 4; fill: rgb(171,171,171); fill-rule: nonzero; opacity: 1;"  transform=" translate(-93.8, -302.32)" d="M 101.69 244.29 h 0 a 0.12 0.12 0 0 0 -0.07 -0.17 a 0.13 0.13 0 0 0 -0.17 0.07 a 171.35 171.35 0 0 0 -9 28.12 a 263.19 263.19 0 0 0 -5 29.15 l -0.7 7.37 c -0.11 1.23 -0.24 2.45 -0.33 3.68 l -0.2 3.7 c -0.1 2.47 -0.26 4.93 -0.33 7.4 L 86 331 l 0.08 3.7 c 0.06 1.24 0.15 2.47 0.23 3.7 c 0.19 2.46 0.34 4.92 0.56 7.38 c 0.48 4.91 1.21 9.79 2 14.65 a 0.14 0.14 0 0 0 0.13 0.11 a 0.13 0.13 0 0 0 0.13 -0.13 h 0 c 0 -2.47 -0.12 -4.92 -0.17 -7.38 s -0.29 -4.89 -0.25 -7.35 s -0.06 -4.9 -0.08 -7.35 l -0.07 -3.67 l 0.06 -3.67 l 0 -7.34 l 0.2 -7.33 l 0.07 -3.67 c 0 -1.22 0.14 -2.44 0.21 -3.66 l 0.45 -7.33 a 262 262 0 0 1 4.15 -29.08 A 170.13 170.13 0 0 1 101.69 244.29 Z" stroke-linecap="round" />
</g>
		<g transform="matrix(1 0 0 1 -277.29 70.8)" id="freepik--Plant--inject-17"  >
<path style="stroke: none; stroke-width: 1; stroke-dasharray: none; stroke-linecap: butt; stroke-dashoffset: 0; stroke-linejoin: miter; stroke-miterlimit: 4; fill: rgb(171,171,171); fill-rule: nonzero; opacity: 1;"  transform=" translate(-97.71, -320.8)" d="M 102.74 282.65 a 0.13 0.13 0 0 0 -0.08 -0.16 a 0.12 0.12 0 0 0 -0.16 0.08 a 169.63 169.63 0 0 0 -8.31 37.79 c -0.65 6.42 -1.37 12.84 -1.46 19.3 A 158.6 158.6 0 0 0 93.42 359 a 0.13 0.13 0 0 0 0.11 0.12 a 0.15 0.15 0 0 0 0.15 -0.12 c 0.74 -6.43 1.2 -12.84 1.64 -19.25 s 0.52 -12.83 0.94 -19.24 a 170.6 170.6 0 0 1 2.28 -19.08 A 175.85 175.85 0 0 1 102.74 282.65 Z" stroke-linecap="round" />
</g>
		<g transform="matrix(1 0 0 1 -264.24 79.56)" id="freepik--Plant--inject-17"  >
<path style="stroke: none; stroke-width: 1; stroke-dasharray: none; stroke-linecap: butt; stroke-dashoffset: 0; stroke-linejoin: miter; stroke-miterlimit: 4; fill: rgb(171,171,171); fill-rule: nonzero; opacity: 1;"  transform=" translate(-110.76, -329.56)" d="M 124 296.15 a 0.13 0.13 0 0 0 -0.18 0 a 64.86 64.86 0 0 0 -14.22 12.4 a 56.73 56.73 0 0 0 -5.56 7.73 l -1.14 2.16 l -0.9 2.24 a 21 21 0 0 0 -0.78 2.27 c -0.23 0.76 -0.49 1.53 -0.69 2.29 A 90.9 90.9 0 0 0 97.6 344 a 108.38 108.38 0 0 0 0.7 18.89 a 0.15 0.15 0 0 0 0.12 0.12 a 0.13 0.13 0 0 0 0.14 -0.12 l 1.62 -18.71 c 0.65 -6.18 1 -12.41 2.37 -18.45 c 0.17 -0.75 0.39 -1.48 0.58 -2.23 a 20.6 20.6 0 0 1 0.65 -2.2 l 0.76 -2.16 l 1 -2.05 a 54.9 54.9 0 0 1 5.1 -7.73 a 63.8 63.8 0 0 1 13.35 -13 h 0 A 0.13 0.13 0 0 0 124 296.15 Z" stroke-linecap="round" />
</g>
		<g transform="matrix(1 0 0 1 -267.2 88.97)" id="freepik--Plant--inject-17"  >
<path style="stroke: none; stroke-width: 1; stroke-dasharray: none; stroke-linecap: butt; stroke-dashoffset: 0; stroke-linejoin: miter; stroke-miterlimit: 4; fill: rgb(171,171,171); fill-rule: nonzero; opacity: 1;"  transform=" translate(-107.8, -338.97)" d="M 113.72 320.18 c -2.9 1.87 -4.84 4.82 -6.47 7.78 a 45.66 45.66 0 0 0 -3.62 9.52 c -0.26 0.82 -0.46 1.64 -0.64 2.47 l -0.58 2.49 a 41 41 0 0 0 -0.63 5.05 c 0 1.7 -0.07 3.39 0 5.08 a 43.55 43.55 0 0 0 0.67 5.06 a 0.13 0.13 0 0 0 0.26 0 a 44.15 44.15 0 0 0 0.89 -5 c 0.27 -1.64 0.52 -3.28 0.72 -4.92 s 0.46 -3.26 0.58 -4.9 s 0.35 -3.28 0.71 -4.88 a 43.71 43.71 0 0 1 2.77 -9.44 a 20.84 20.84 0 0 1 5.43 -8.11 h 0 a 0.12 0.12 0 0 0 0 -0.17 A 0.12 0.12 0 0 0 113.72 320.18 Z" stroke-linecap="round" />
</g>
		<g transform="matrix(1 0 0 1 -297.14 64.54)" id="freepik--Plant--inject-17"  >
<path style="stroke: none; stroke-width: 1; stroke-dasharray: none; stroke-linecap: butt; stroke-dashoffset: 0; stroke-linejoin: miter; stroke-miterlimit: 4; fill: rgb(171,171,171); fill-rule: nonzero; opacity: 1;"  transform=" translate(-77.86, -314.54)" d="M 83.89 338.92 c -0.7 -8.31 -2.07 -16.53 -3.37 -24.74 s -2.73 -16.41 -4.23 -24.59 s -3.18 -16.32 -5 -24.45 a 0.13 0.13 0 0 0 -0.25 0.05 c 1.42 8.19 2.71 16.4 3.92 24.61 s 2.42 16.43 3.46 24.67 s 1.81 16.5 2.84 24.72 l 3 24.72 a 0.13 0.13 0 0 0 0.12 0.12 a 0.13 0.13 0 0 0 0.13 -0.13 c 0.1 -2.08 0.1 -4.16 0.15 -6.25 s -0.08 -4.17 -0.12 -6.25 C 84.55 347.22 84.2 343.07 83.89 338.92 Z" stroke-linecap="round" />
</g>
		<g transform="matrix(1 0 0 1 -306.06 71.14)" id="freepik--Plant--inject-17"  >
<path style="stroke: none; stroke-width: 1; stroke-dasharray: none; stroke-linecap: butt; stroke-dashoffset: 0; stroke-linejoin: miter; stroke-miterlimit: 4; fill: rgb(171,171,171); fill-rule: nonzero; opacity: 1;"  transform=" translate(-68.94, -321.14)" d="M 78.91 338.8 c -0.45 -3.29 -1 -6.56 -1.68 -9.82 l -1.16 -4.85 c -0.39 -1.61 -0.75 -3.23 -1.22 -4.83 a 137.76 137.76 0 0 0 -6.35 -18.88 l -1 -2.29 L 66.4 295.9 c -0.71 -1.51 -1.56 -2.94 -2.36 -4.39 a 36.91 36.91 0 0 0 -6 -7.95 a 0.13 0.13 0 1 0 -0.18 0.18 v 0 a 36.58 36.58 0 0 1 5.49 8.12 c 0.72 1.48 1.48 2.93 2.1 4.46 l 1 2.26 l 0.86 2.3 a 134.87 134.87 0 0 1 5.53 18.89 c 0.76 3.2 1.26 6.45 1.88 9.68 l 0.78 4.86 c 0.28 1.62 0.63 3.23 0.85 4.86 c 0.52 3.24 1.12 6.48 1.69 9.73 s 1.09 6.51 1.78 9.76 a 0.14 0.14 0 0 0 0.13 0.11 a 0.13 0.13 0 0 0 0.13 -0.13 c 0 -3.32 -0.06 -6.64 -0.23 -10 S 79.25 342.1 78.91 338.8 Z" stroke-linecap="round" />
</g>
		<g transform="matrix(1 0 0 1 -306.43 90.38)" id="freepik--Plant--inject-17"  >
<path style="stroke: none; stroke-width: 1; stroke-dasharray: none; stroke-linecap: butt; stroke-dashoffset: 0; stroke-linejoin: miter; stroke-miterlimit: 4; fill: rgb(171,171,171); fill-rule: nonzero; opacity: 1;"  transform=" translate(-68.57, -340.38)" d="M 72 339.22 c -1.54 -4.35 -3.32 -8.62 -5.26 -12.8 a 113.88 113.88 0 0 0 -6.62 -12.13 a 0.14 0.14 0 0 0 -0.17 0 a 0.14 0.14 0 0 0 -0.05 0.18 a 115.8 115.8 0 0 1 5.65 12.5 c 1.68 4.25 3.2 8.56 4.47 12.94 s 2.23 8.83 3.4 13.22 s 2.21 8.83 3.56 13.27 a 0.14 0.14 0 0 0 0.12 0.1 a 0.13 0.13 0 0 0 0.14 -0.13 A 66 66 0 0 0 76 352.52 A 86.76 86.76 0 0 0 72 339.22 Z" stroke-linecap="round" />
</g>
		<g transform="matrix(1 0 0 1 -310.93 98.71)" id="freepik--Plant--inject-17"  >
<path style="stroke: none; stroke-width: 1; stroke-dasharray: none; stroke-linecap: butt; stroke-dashoffset: 0; stroke-linejoin: miter; stroke-miterlimit: 4; fill: rgb(171,171,171); fill-rule: nonzero; opacity: 1;"  transform=" translate(-64.07, -348.71)" d="M 71.75 353.74 a 29.87 29.87 0 0 0 -3.66 -7.67 a 31.38 31.38 0 0 0 -5.32 -6.61 a 23.76 23.76 0 0 0 -3.38 -2.55 a 13.87 13.87 0 0 0 -3.84 -1.74 a 0.13 0.13 0 0 0 -0.15 0.07 a 0.12 0.12 0 0 0 0.07 0.17 h 0 a 19.14 19.14 0 0 1 6.37 4.95 a 30.29 30.29 0 0 1 4.44 6.71 c 1.26 2.39 1.91 5 3 7.48 c 0.49 1.26 1 2.53 1.53 3.79 a 31.9 31.9 0 0 0 1.67 3.84 h 0 a 0.12 0.12 0 0 0 0.11 0.07 a 0.13 0.13 0 0 0 0.14 -0.12 a 30.15 30.15 0 0 0 -0.16 -4.25 C 72.38 356.5 72.08 355.11 71.75 353.74 Z" stroke-linecap="round" />
</g>
		<g transform="matrix(1 0 0 1 -313.89 -17)" id="freepik--Plant--inject-17"  >
<path style="stroke: none; stroke-width: 1; stroke-dasharray: none; stroke-linecap: butt; stroke-dashoffset: 0; stroke-linejoin: miter; stroke-miterlimit: 4; fill: rgb(146,227,169); fill-rule: nonzero; opacity: 1;"  transform=" translate(-61.11, -233)" d="M 72.26 277 s -13.6 -3.14 -16.74 -17.79 s 7 -8.38 -2.1 -31.41 s -7 -28.26 -3.83 -34.89 s 4.88 -4.53 7.67 4.19 S 70.17 219.46 74 244.93 S 72.26 277 72.26 277 Z" stroke-linecap="round" />
</g>
		<g transform="matrix(1 0 0 1 -269.18 -43.62)" id="freepik--Plant--inject-17"  >
<path style="stroke: none; stroke-width: 1; stroke-dasharray: none; stroke-linecap: butt; stroke-dashoffset: 0; stroke-linejoin: miter; stroke-miterlimit: 4; fill: rgb(146,227,169); fill-rule: nonzero; opacity: 1;"  transform=" translate(-105.82, -206.38)" d="M 99.13 252.26 s -9.07 -3.14 -9.42 -20.24 s 6.63 -13.61 7.67 -34.89 s 2.45 -36.29 6.28 -36.63 s 14 10.46 17.45 34.19 s -4.54 39.42 -11.51 46.4 S 99.13 252.26 99.13 252.26 Z" stroke-linecap="round" />
</g>
		<g transform="matrix(1 0 0 1 -326.47 21.55)" id="freepik--Plant--inject-17"  >
<path style="stroke: none; stroke-width: 1; stroke-dasharray: none; stroke-linecap: butt; stroke-dashoffset: 0; stroke-linejoin: miter; stroke-miterlimit: 4; fill: rgb(146,227,169); fill-rule: nonzero; opacity: 1;"  transform=" translate(-48.53, -271.55)" d="M 67.38 297.61 s -2.09 -12.56 -6.28 -18.49 S 47.84 268 41.91 256.44 s -12.56 -17.09 -12.21 -0.69 s 7.67 24.77 16.74 30.35 S 67.38 297.61 67.38 297.61 Z" stroke-linecap="round" />
</g>
		<g transform="matrix(1 0 0 1 -331.34 49.63)" id="freepik--Plant--inject-17"  >
<path style="stroke: none; stroke-width: 1; stroke-dasharray: none; stroke-linecap: butt; stroke-dashoffset: 0; stroke-linejoin: miter; stroke-miterlimit: 4; fill: rgb(146,227,169); fill-rule: nonzero; opacity: 1;"  transform=" translate(-43.66, -299.63)" d="M 63.54 319.25 S 55.17 303.2 43 291.33 s -22 -17.79 -18.5 -11.86 s 7.68 5.58 13.61 16 s 4.19 18.14 12.56 24.08 S 63.54 319.25 63.54 319.25 Z" stroke-linecap="round" />
</g>
		<g transform="matrix(1 0 0 1 -329.66 80.37)" id="freepik--Plant--inject-17"  >
<path style="stroke: none; stroke-width: 1; stroke-dasharray: none; stroke-linecap: butt; stroke-dashoffset: 0; stroke-linejoin: miter; stroke-miterlimit: 4; fill: rgb(146,227,169); fill-rule: nonzero; opacity: 1;"  transform=" translate(-45.34, -330.37)" d="M 62.49 339.83 c -0.34 -1.05 -0.69 -8.72 -12.56 -15 s -23 -3.84 -21.63 -0.7 S 37 332.5 44.35 335.64 S 62.49 339.83 62.49 339.83 Z" stroke-linecap="round" />
</g>
		<g transform="matrix(1 0 0 1 -256.63 16.21)" id="freepik--Plant--inject-17"  >
<path style="stroke: none; stroke-width: 1; stroke-dasharray: none; stroke-linecap: butt; stroke-dashoffset: 0; stroke-linejoin: miter; stroke-miterlimit: 4; fill: rgb(146,227,169); fill-rule: nonzero; opacity: 1;"  transform=" translate(-118.37, -266.21)" d="M 98.43 298.31 S 93.2 291.68 96 277.73 s 9.07 -10.47 16.05 -17.8 s 5.58 -8.37 12.56 -16.05 s 13.26 -11.86 16.05 -8.72 s -1.4 12.91 -5.58 18.49 s -10.82 8.38 -14 15.35 s -1.74 18.15 -9.77 23.38 S 98.43 298.31 98.43 298.31 Z" stroke-linecap="round" />
</g>
		<g transform="matrix(1 0 0 1 -241.44 32.7)" id="freepik--Plant--inject-17"  >
<path style="stroke: none; stroke-width: 1; stroke-dasharray: none; stroke-linecap: butt; stroke-dashoffset: 0; stroke-linejoin: miter; stroke-miterlimit: 4; fill: rgb(146,227,169); fill-rule: nonzero; opacity: 1;"  transform=" translate(-133.56, -282.7)" d="M 115.88 302.15 s 12.56 -14.3 21.63 -24.77 s 12.56 -18.49 12.91 -11.52 s 3.14 12.56 -4.19 21.64 S 115.88 302.15 115.88 302.15 Z" stroke-linecap="round" />
</g>
		<g transform="matrix(1 0 0 1 -242.74 59.59)" id="freepik--Plant--inject-17"  >
<path style="stroke: none; stroke-width: 1; stroke-dasharray: none; stroke-linecap: butt; stroke-dashoffset: 0; stroke-linejoin: miter; stroke-miterlimit: 4; fill: rgb(146,227,169); fill-rule: nonzero; opacity: 1;"  transform=" translate(-132.26, -309.59)" d="M 109.25 325.18 s -0.35 -5.58 19.54 -18.49 s 28.26 -15.36 26.16 -10.12 S 144.14 307 134.72 316.45 S 109.25 325.18 109.25 325.18 Z" stroke-linecap="round" />
</g>
		<g transform="matrix(1 0 0 1 -310.69 -10.17)" id="freepik--Plant--inject-17"  >
<path style="stroke: rgb(171,171,171); stroke-width: 1; stroke-dasharray: none; stroke-linecap: round; stroke-dashoffset: 0; stroke-linejoin: round; stroke-miterlimit: 4; fill: none; fill-rule: nonzero; opacity: 1;"  transform=" translate(-64.31, -239.83)" d="M 73.09 275.54 s -4.66 -25 -9.55 -42.82 s -8 -28.61 -8 -28.61" stroke-linecap="round" />
</g>
		<g transform="matrix(1 0 0 1 -270.47 -37.2)" id="freepik--Plant--inject-17"  >
<path style="stroke: rgb(171,171,171); stroke-width: 1; stroke-dasharray: none; stroke-linecap: round; stroke-dashoffset: 0; stroke-linejoin: round; stroke-miterlimit: 4; fill: none; fill-rule: nonzero; opacity: 1;"  transform=" translate(-104.53, -212.8)" d="M 98.33 252.52 S 106.8 225.39 109.6 209 s -0.35 -28.61 -1.75 -35.93" stroke-linecap="round" />
</g>
		<g transform="matrix(1 0 0 1 -323.69 26.59)" id="freepik--Plant--inject-17"  >
<path style="stroke: rgb(171,171,171); stroke-width: 1; stroke-dasharray: none; stroke-linecap: round; stroke-dashoffset: 0; stroke-linejoin: round; stroke-miterlimit: 4; fill: none; fill-rule: nonzero; opacity: 1;"  transform=" translate(-51.3, -276.59)" d="M 66.28 297.09 a 131.88 131.88 0 0 0 -12.86 -18.32 c -7.67 -9.07 -13.6 -13.95 -17.09 -22.68" stroke-linecap="round" />
</g>
		<g transform="matrix(1 0 0 1 -259.3 20.08)" id="freepik--Plant--inject-17"  >
<path style="stroke: rgb(171,171,171); stroke-width: 1; stroke-dasharray: none; stroke-linecap: round; stroke-dashoffset: 0; stroke-linejoin: round; stroke-miterlimit: 4; fill: none; fill-rule: nonzero; opacity: 1;"  transform=" translate(-115.7, -270.08)" d="M 98.43 298.31 s 2.79 -16.75 9.42 -25.47 s 19.89 -22.33 25.12 -31" stroke-linecap="round" />
</g>
		<g transform="matrix(1 0 0 1 -323.38 83.53)" id="freepik--Plant--inject-17"  >
<path style="stroke: rgb(171,171,171); stroke-width: 1; stroke-dasharray: none; stroke-linecap: round; stroke-dashoffset: 0; stroke-linejoin: round; stroke-miterlimit: 4; fill: none; fill-rule: nonzero; opacity: 1;"  transform=" translate(-51.62, -333.53)" d="M 61.67 339.45 s -11.74 -7.64 -20.11 -11.83" stroke-linecap="round" />
</g>
		<g transform="matrix(1 0 0 1 -286.86 129.58)" id="freepik--Plant--inject-17"  >
<path style="stroke: none; stroke-width: 1; stroke-dasharray: none; stroke-linecap: butt; stroke-dashoffset: 0; stroke-linejoin: miter; stroke-miterlimit: 4; fill: rgb(171,171,171); fill-rule: nonzero; opacity: 1;"  transform=" translate(-88.14, -379.58)" d="M 95.82 413.45 H 80.46 a 6.73 6.73 0 0 1 -6.22 -4.14 c -5 -12 -18.42 -46.73 -10.35 -56.57 c 7.69 -9.37 40.81 -9.37 48.5 0 c 8.07 9.84 -5.33 44.55 -10.35 56.57 A 6.74 6.74 0 0 1 95.82 413.45 Z" stroke-linecap="round" />
</g>
		<g transform="matrix(1 0 0 1 219.27 -117.72)" id="freepik--Picture--inject-17"  >
<rect style="stroke: rgb(0,0,0); stroke-width: 1; stroke-dasharray: none; stroke-linecap: butt; stroke-dashoffset: 0; stroke-linejoin: miter; stroke-miterlimit: 10; fill: none; fill-rule: nonzero; opacity: 0.30000000000000004;"  x="-43.465" y="-53.885" rx="0" ry="0" width="86.93" height="107.77" />
</g>
		<g transform="matrix(1 0 0 1 219.28 -117.72)" id="freepik--Picture--inject-17"  >
<rect style="stroke: rgb(0,0,0); stroke-width: 1; stroke-dasharray: none; stroke-linecap: butt; stroke-dashoffset: 0; stroke-linejoin: miter; stroke-miterlimit: 10; fill: rgb(0,0,0); fill-rule: nonzero; opacity: 0.30000000000000004;"  x="-22" y="-27.275" rx="0" ry="0" width="44" height="54.55" />
</g>
		<g transform="matrix(-1 0 0 -1 103.16 20.1)" id="freepik--Furniture--inject-17"  >
<rect style="stroke: rgb(0,0,0); stroke-width: 1; stroke-dasharray: none; stroke-linecap: round; stroke-dashoffset: 0; stroke-linejoin: round; stroke-miterlimit: 4; fill: none; fill-rule: nonzero; opacity: 0.30000000000000004;"  x="-68.9" y="-2.595" rx="0" ry="0" width="137.8" height="5.19" />
</g>
		<g transform="matrix(-1 0 0 -1 103.16 92.99)" id="freepik--Furniture--inject-17"  >
<rect style="stroke: rgb(0,0,0); stroke-width: 1; stroke-dasharray: none; stroke-linecap: round; stroke-dashoffset: 0; stroke-linejoin: round; stroke-miterlimit: 4; fill: none; fill-rule: nonzero; opacity: 0.30000000000000004;"  x="-62.51" y="-70.155" rx="0" ry="0" width="125.02" height="140.31" />
</g>
		<g transform="matrix(-1 0 0 -1 103.23 44.59)" id="freepik--Furniture--inject-17"  >
<rect style="stroke: rgb(0,0,0); stroke-width: 1; stroke-dasharray: none; stroke-linecap: round; stroke-dashoffset: 0; stroke-linejoin: round; stroke-miterlimit: 4; fill: none; fill-rule: nonzero; opacity: 0.30000000000000004;"  x="-58.085" y="-15.22" rx="0" ry="0" width="116.17" height="30.44" />
</g>
		<g transform="matrix(-1 0 0 -1 103.42 44.58)" id="freepik--Furniture--inject-17"  >
<rect style="stroke: rgb(0,0,0); stroke-width: 1; stroke-dasharray: none; stroke-linecap: round; stroke-dashoffset: 0; stroke-linejoin: round; stroke-miterlimit: 4; fill: rgb(38,50,56); fill-rule: nonzero; opacity: 0.30000000000000004;"  x="-5.81" y="-2.805" rx="0" ry="0" width="11.62" height="5.61" />
</g>
		<g transform="matrix(-1 0 0 -1 103.23 83.05)" id="freepik--Furniture--inject-17"  >
<rect style="stroke: rgb(0,0,0); stroke-width: 1; stroke-dasharray: none; stroke-linecap: round; stroke-dashoffset: 0; stroke-linejoin: round; stroke-miterlimit: 4; fill: none; fill-rule: nonzero; opacity: 0.30000000000000004;"  x="-58.085" y="-15.22" rx="0" ry="0" width="116.17" height="30.44" />
</g>
		<g transform="matrix(-1 0 0 -1 103.42 83.06)" id="freepik--Furniture--inject-17"  >
<rect style="stroke: rgb(0,0,0); stroke-width: 1; stroke-dasharray: none; stroke-linecap: round; stroke-dashoffset: 0; stroke-linejoin: round; stroke-miterlimit: 4; fill: rgb(38,50,56); fill-rule: nonzero; opacity: 0.30000000000000004;"  x="-5.81" y="-2.805" rx="0" ry="0" width="11.62" height="5.61" />
</g>
		<g transform="matrix(-1 0 0 -1 103.23 121.68)" id="freepik--Furniture--inject-17"  >
<rect style="stroke: rgb(0,0,0); stroke-width: 1; stroke-dasharray: none; stroke-linecap: round; stroke-dashoffset: 0; stroke-linejoin: round; stroke-miterlimit: 4; fill: none; fill-rule: nonzero; opacity: 0.30000000000000004;"  x="-58.085" y="-15.22" rx="0" ry="0" width="116.17" height="30.44" />
</g>
		<g transform="matrix(-1 0 0 -1 103.42 121.68)" id="freepik--Furniture--inject-17"  >
<rect style="stroke: rgb(0,0,0); stroke-width: 1; stroke-dasharray: none; stroke-linecap: round; stroke-dashoffset: 0; stroke-linejoin: round; stroke-miterlimit: 4; fill: rgb(38,50,56); fill-rule: nonzero; opacity: 0.30000000000000004;"  x="-5.81" y="-2.805" rx="0" ry="0" width="11.62" height="5.61" />
</g>
		<g transform="matrix(1 0 0 1 101.64 -6.59)" id="freepik--Furniture--inject-17"  >
<path style="stroke: rgb(0,0,0); stroke-width: 1; stroke-dasharray: none; stroke-linecap: butt; stroke-dashoffset: 0; stroke-linejoin: miter; stroke-miterlimit: 10; fill: rgb(0,0,0); fill-rule: nonzero; opacity: 0.30000000000000004;"  transform=" translate(-476.64, -243.41)" d="M 481.64 221.16 v -1.42 h -10 v 1.42 a 26.77 26.77 0 0 1 -8.11 18.91 a 15.3 15.3 0 0 0 -4.64 10.87 c 0 8.91 7.95 16.13 17.76 16.13 s 17.75 -7.22 17.75 -16.13 a 15.29 15.29 0 0 0 -4.63 -10.87 A 26.73 26.73 0 0 1 481.64 221.16 Z" stroke-linecap="round" />
</g>
		<g transform="matrix(1 0 0 1 101.99 -64.17)" id="freepik--Furniture--inject-17"  >
<rect style="stroke: rgb(0,0,0); stroke-width: 1; stroke-dasharray: none; stroke-linecap: butt; stroke-dashoffset: 0; stroke-linejoin: miter; stroke-miterlimit: 10; fill: none; fill-rule: nonzero; opacity: 0.30000000000000004;"  x="-37.215" y="-33.895" rx="0" ry="0" width="74.43" height="67.79" />
</g>
		<g transform="matrix(1 0 0 1 98.38 195.98)" id="freepik--Mat--inject-17"  >
<polygon style="stroke: none; stroke-width: 1; stroke-dasharray: none; stroke-linecap: butt; stroke-dashoffset: 0; stroke-linejoin: miter; stroke-miterlimit: 4; fill: rgb(171,171,171); fill-rule: nonzero; opacity: 1;"  points="-251.07,26.22 251.08,26.22 209.24,-26.23 -209.22,-26.23 -251.07,26.22 " />
</g>
		<g transform="matrix(1 0 0 1 -150.05 -4.33)" id="freepik--Device--inject-17"  >
<path style="stroke: rgb(38,50,56); stroke-width: 1; stroke-dasharray: none; stroke-linecap: round; stroke-dashoffset: 0; stroke-linejoin: round; stroke-miterlimit: 4; fill: rgb(255,255,255); fill-rule: nonzero; opacity: 1;"  transform=" translate(-224.95, -245.67)" d="M 307.73 89.92 v 311.5 a 15.48 15.48 0 0 1 -15.48 15.48 H 157.65 a 15.48 15.48 0 0 1 -15.48 -15.48 V 89.92 a 15.48 15.48 0 0 1 15.47 -15.48 h 57.78 l 0 0.18 c 1.44 5.18 4.76 8.55 8.44 8.55 H 226 c 3.68 0 7 -3.37 8.43 -8.55 l 0.06 -0.18 h 57.76 A 15.48 15.48 0 0 1 307.73 89.92 Z" stroke-linecap="round" />
</g>
		<g transform="matrix(1 0 0 1 -148.65 1.63)" id="freepik--Device--inject-17"  >
<path style="stroke: rgb(38,50,56); stroke-width: 1; stroke-dasharray: none; stroke-linecap: round; stroke-dashoffset: 0; stroke-linejoin: round; stroke-miterlimit: 4; fill: rgb(146,227,169); fill-rule: nonzero; opacity: 1;"  transform=" translate(-226.35, -251.63)" d="M 318.25 164.32 V 133.21 h -2.81 V 93.38 a 24.55 24.55 0 0 0 -24.55 -24.55 H 159 a 24.55 24.55 0 0 0 -24.55 24.55 v 316.5 A 24.55 24.55 0 0 0 159 434.43 H 290.89 a 24.55 24.55 0 0 0 24.55 -24.55 v -219 h 2.81 V 172.45 h -2.81 v -8.13 Z m -10.52 228 a 24.56 24.56 0 0 1 -24.56 24.56 H 166.73 a 24.56 24.56 0 0 1 -24.56 -24.56 V 99 a 24.56 24.56 0 0 1 24.56 -24.55 h 48.69 l 0 0.18 c 1.44 5.18 4.76 8.55 8.44 8.55 H 226 c 3.68 0 7 -3.37 8.43 -8.55 l 0.06 -0.18 h 48.68 A 24.56 24.56 0 0 1 307.73 99 Z" stroke-linecap="round" />
</g>
		<g transform="matrix(1 0 0 1 -150.05 1.63)" id="freepik--Device--inject-17"  >
<path style="stroke: rgb(38,50,56); stroke-width: 1; stroke-dasharray: none; stroke-linecap: round; stroke-dashoffset: 0; stroke-linejoin: round; stroke-miterlimit: 4; fill: rgb(38,50,56); fill-rule: nonzero; opacity: 1;"  transform=" translate(-224.95, -251.63)" d="M 288.92 72.21 H 161 A 23.68 23.68 0 0 0 137.3 95.89 V 407.37 A 23.68 23.68 0 0 0 161 431.05 H 288.92 a 23.68 23.68 0 0 0 23.68 -23.68 V 95.89 A 23.68 23.68 0 0 0 288.92 72.21 Z m 18.81 321 a 23.68 23.68 0 0 1 -23.68 23.68 H 165.85 a 23.68 23.68 0 0 1 -23.68 -23.68 V 98.12 a 23.68 23.68 0 0 1 23.67 -23.68 h 49.58 l 0 0.18 c 1.44 5.18 4.76 8.55 8.44 8.55 H 226 c 3.68 0 7 -3.37 8.43 -8.55 l 0.06 -0.18 h 49.56 a 23.69 23.69 0 0 1 23.68 23.68 Z" stroke-linecap="round" />
</g>
		<g transform="matrix(1 0 0 1 -150.56 -174.39)" id="freepik--Device--inject-17"  >
<path style="stroke: none; stroke-width: 1; stroke-dasharray: none; stroke-linecap: butt; stroke-dashoffset: 0; stroke-linejoin: miter; stroke-miterlimit: 4; fill: rgb(255,255,255); fill-rule: nonzero; opacity: 1;"  transform=" translate(-224.44, -75.61)" d="M 226.75 75.62 a 2.31 2.31 0 1 0 -2.31 2.3 A 2.3 2.3 0 0 0 226.75 75.62 Z" stroke-linecap="round" />
</g>
		<g transform="matrix(1 0 0 1 -219.85 -163.56)" id="freepik--Device--inject-17"  >
<path style="stroke: none; stroke-width: 1; stroke-dasharray: none; stroke-linecap: butt; stroke-dashoffset: 0; stroke-linejoin: miter; stroke-miterlimit: 4; fill: rgb(38,50,56); fill-rule: nonzero; opacity: 1;"  transform=" translate(-155.15, -86.44)" d="M 156.89 84.45 c 0 2.33 -2.62 3.17 -2.63 5 v 0.12 h 2.54 v 0.79 h -3.39 v -0.67 c 0 -2.49 2.62 -3 2.62 -5.16 c 0 -0.79 -0.27 -1.21 -0.91 -1.21 s -0.91 0.45 -0.91 1.14 v 0.68 h -0.8 v -0.63 c 0 -1.18 0.54 -2 1.73 -2 S 156.89 83.27 156.89 84.45 Z" stroke-linecap="round" />
</g>
		<g transform="matrix(1 0 0 1 -215.63 -163.59)" id="freepik--Device--inject-17"  >
<path style="stroke: none; stroke-width: 1; stroke-dasharray: none; stroke-linecap: butt; stroke-dashoffset: 0; stroke-linejoin: miter; stroke-miterlimit: 4; fill: rgb(38,50,56); fill-rule: nonzero; opacity: 1;"  transform=" translate(-159.37, -86.41)" d="M 161.12 84.44 v 0.2 a 1.54 1.54 0 0 1 -0.94 1.59 a 1.54 1.54 0 0 1 0.94 1.6 v 0.6 c 0 1.18 -0.55 1.95 -1.75 1.95 s -1.73 -0.77 -1.73 -1.95 V 87.9 h 0.81 v 0.58 c 0 0.7 0.28 1.12 0.9 1.12 s 0.91 -0.41 0.91 -1.19 v -0.6 c 0 -0.76 -0.32 -1.13 -1 -1.15 h -0.47 v -0.77 h 0.51 a 0.93 0.93 0 0 0 0.93 -1.06 v -0.36 c 0 -0.79 -0.28 -1.2 -0.91 -1.2 s -0.9 0.43 -0.9 1.12 v 0.4 h -0.81 v -0.35 c 0 -1.18 0.55 -2 1.73 -2 S 161.12 83.26 161.12 84.44 Z" stroke-linecap="round" />
</g>
		<g transform="matrix(1 0 0 1 -212.61 -162.36)" id="freepik--Device--inject-17"  >
<path style="stroke: none; stroke-width: 1; stroke-dasharray: none; stroke-linecap: butt; stroke-dashoffset: 0; stroke-linejoin: miter; stroke-miterlimit: 4; fill: rgb(38,50,56); fill-rule: nonzero; opacity: 1;"  transform=" translate(-162.39, -87.64)" d="M 162.79 85 V 86.1 H 162 V 85 Z m 0 4.21 v 1.08 H 162 V 89.23 Z" stroke-linecap="round" />
</g>
		<g transform="matrix(1 0 0 1 -209.62 -163.51)" id="freepik--Device--inject-17"  >
<path style="stroke: none; stroke-width: 1; stroke-dasharray: none; stroke-linecap: butt; stroke-dashoffset: 0; stroke-linejoin: miter; stroke-miterlimit: 4; fill: rgb(38,50,56); fill-rule: nonzero; opacity: 1;"  transform=" translate(-165.38, -86.48)" d="M 164.54 85.72 a 1.24 1.24 0 0 1 1.15 -0.64 c 1 0 1.43 0.73 1.43 1.83 v 1.52 c 0 1.18 -0.56 1.95 -1.74 1.95 s -1.74 -0.77 -1.74 -1.95 v -0.52 h 0.81 v 0.57 c 0 0.7 0.29 1.12 0.91 1.12 s 0.9 -0.42 0.9 -1.12 V 87 c 0 -0.7 -0.29 -1.12 -0.9 -1.12 a 0.84 0.84 0 0 0 -0.88 0.83 v 0.18 h -0.8 l 0.21 -4.3 h 3.05 v 0.77 h -2.28 Z" stroke-linecap="round" />
</g>
		<g transform="matrix(1 0 0 1 -205.33 -163.59)" id="freepik--Device--inject-17"  >
<path style="stroke: none; stroke-width: 1; stroke-dasharray: none; stroke-linecap: butt; stroke-dashoffset: 0; stroke-linejoin: miter; stroke-miterlimit: 4; fill: rgb(38,50,56); fill-rule: nonzero; opacity: 1;"  transform=" translate(-169.67, -86.41)" d="M 171.42 84.43 v 0.14 h -0.8 v -0.2 c 0 -0.69 -0.29 -1.1 -0.92 -1.1 s -0.94 0.42 -0.94 1.25 v 1.73 a 1.25 1.25 0 0 1 1.25 -0.83 c 1 0 1.44 0.72 1.44 1.84 v 1.17 c 0 1.18 -0.59 1.95 -1.77 1.95 s -1.78 -0.77 -1.78 -1.95 v -4 c 0 -1.22 0.55 -2 1.78 -2 S 171.42 83.24 171.42 84.43 Z m -2.66 2.89 v 1.16 c 0 0.7 0.29 1.12 0.92 1.12 s 0.91 -0.42 0.91 -1.12 V 87.32 c 0 -0.69 -0.29 -1.11 -0.91 -1.11 S 168.76 86.63 168.76 87.32 Z" stroke-linecap="round" />
</g>
		<g transform="matrix(1 0 0 1 -120.22 -162.5)" id="freepik--Device--inject-17"  >
<rect style="stroke: none; stroke-width: 1; stroke-dasharray: none; stroke-linecap: butt; stroke-dashoffset: 0; stroke-linejoin: miter; stroke-miterlimit: 4; fill: rgb(38,50,56); fill-rule: nonzero; opacity: 1;"  x="-1.09" y="-2.73" rx="0" ry="0" width="2.18" height="5.46" />
</g>
		<g transform="matrix(1 0 0 1 -117.31 -163.05)" id="freepik--Device--inject-17"  >
<rect style="stroke: none; stroke-width: 1; stroke-dasharray: none; stroke-linecap: butt; stroke-dashoffset: 0; stroke-linejoin: miter; stroke-miterlimit: 4; fill: rgb(38,50,56); fill-rule: nonzero; opacity: 1;"  x="-1.09" y="-3.275" rx="0" ry="0" width="2.18" height="6.55" />
</g>
		<g transform="matrix(1 0 0 1 -114.39 -163.44)" id="freepik--Device--inject-17"  >
<rect style="stroke: none; stroke-width: 1; stroke-dasharray: none; stroke-linecap: butt; stroke-dashoffset: 0; stroke-linejoin: miter; stroke-miterlimit: 4; fill: rgb(38,50,56); fill-rule: nonzero; opacity: 1;"  x="-1.09" y="-3.665" rx="0" ry="0" width="2.18" height="7.33" />
</g>
		<g transform="matrix(1 0 0 1 -111.48 -164.11)" id="freepik--Device--inject-17"  >
<rect style="stroke: none; stroke-width: 1; stroke-dasharray: none; stroke-linecap: butt; stroke-dashoffset: 0; stroke-linejoin: miter; stroke-miterlimit: 4; fill: rgb(38,50,56); fill-rule: nonzero; opacity: 1;"  x="-1.09" y="-4.34" rx="0" ry="0" width="2.18" height="8.68" />
</g>
		<g transform="matrix(1 0 0 1 -89.91 -163.92)" id="freepik--Device--inject-17"  >
<path style="stroke: none; stroke-width: 1; stroke-dasharray: none; stroke-linecap: butt; stroke-dashoffset: 0; stroke-linejoin: miter; stroke-miterlimit: 4; fill: rgb(38,50,56); fill-rule: nonzero; opacity: 1;"  transform=" translate(-285.09, -86.08)" d="M 291.64 90.08 h -13.1 v -8 h 13.1 Z m -12.37 -0.73 h 11.65 V 82.8 H 279.27 Z" stroke-linecap="round" />
</g>
		<g transform="matrix(1 0 0 1 -91.18 -163.92)" id="freepik--Device--inject-17"  >
<rect style="stroke: none; stroke-width: 1; stroke-dasharray: none; stroke-linecap: butt; stroke-dashoffset: 0; stroke-linejoin: miter; stroke-miterlimit: 4; fill: rgb(38,50,56); fill-rule: nonzero; opacity: 1;"  x="-3.46" y="-2.485" rx="0" ry="0" width="6.92" height="4.97" />
</g>
		<g transform="matrix(1 0 0 1 -82.98 -163.93)" id="freepik--Device--inject-17"  >
<rect style="stroke: none; stroke-width: 1; stroke-dasharray: none; stroke-linecap: butt; stroke-dashoffset: 0; stroke-linejoin: miter; stroke-miterlimit: 4; fill: rgb(38,50,56); fill-rule: nonzero; opacity: 1;"  x="-0.825" y="-0.945" rx="0" ry="0" width="1.65" height="1.89" />
</g>
		<g transform="matrix(1 0 0 1 -103.84 -162.46)" id="freepik--Device--inject-17"  >
<path style="stroke: none; stroke-width: 1; stroke-dasharray: none; stroke-linecap: butt; stroke-dashoffset: 0; stroke-linejoin: miter; stroke-miterlimit: 4; fill: rgb(38,50,56); fill-rule: nonzero; opacity: 1;"  transform=" translate(-271.16, -87.54)" d="M 273.73 88.34 a 0.59 0.59 0 0 1 -0.25 -0.07 c -2.66 -1.59 -4.43 -0.12 -4.5 0 a 0.5 0.5 0 0 1 -0.69 0 a 0.48 0.48 0 0 1 0 -0.69 c 0.09 -0.08 2.34 -2 5.64 0 a 0.48 0.48 0 0 1 0.17 0.67 A 0.49 0.49 0 0 1 273.73 88.34 Z" stroke-linecap="round" />
</g>
		<g transform="matrix(1 0 0 1 -103.8 -164.3)" id="freepik--Device--inject-17"  >
<path style="stroke: none; stroke-width: 1; stroke-dasharray: none; stroke-linecap: butt; stroke-dashoffset: 0; stroke-linejoin: miter; stroke-miterlimit: 4; fill: rgb(38,50,56); fill-rule: nonzero; opacity: 1;"  transform=" translate(-271.2, -85.7)" d="M 274.72 86.69 a 0.45 0.45 0 0 1 -0.25 -0.07 c -3.86 -2.29 -6.45 -0.07 -6.48 -0.05 a 0.48 0.48 0 0 1 -0.69 0 a 0.5 0.5 0 0 1 0.05 -0.69 s 3.16 -2.7 7.62 0 a 0.49 0.49 0 0 1 0.17 0.67 A 0.47 0.47 0 0 1 274.72 86.69 Z" stroke-linecap="round" />
</g>
		<g transform="matrix(1 0 0 1 -103.82 -166.38)" id="freepik--Device--inject-17"  >
<path style="stroke: none; stroke-width: 1; stroke-dasharray: none; stroke-linecap: butt; stroke-dashoffset: 0; stroke-linejoin: miter; stroke-miterlimit: 4; fill: rgb(38,50,56); fill-rule: nonzero; opacity: 1;"  transform=" translate(-271.18, -83.62)" d="M 275.62 84.79 a 0.52 0.52 0 0 1 -0.25 -0.07 c -4.89 -2.91 -8.14 -0.17 -8.27 -0.06 a 0.49 0.49 0 1 1 -0.65 -0.73 s 3.9 -3.34 9.42 -0.05 a 0.49 0.49 0 0 1 0.17 0.67 A 0.52 0.52 0 0 1 275.62 84.79 Z" stroke-linecap="round" />
</g>
		<g transform="matrix(1 0 0 1 -103.97 -160.84)" id="freepik--Device--inject-17"  >
<path style="stroke: none; stroke-width: 1; stroke-dasharray: none; stroke-linecap: butt; stroke-dashoffset: 0; stroke-linejoin: miter; stroke-miterlimit: 4; fill: rgb(38,50,56); fill-rule: nonzero; opacity: 1;"  transform=" translate(-271.03, -89.16)" d="M 272.26 89.16 A 1.23 1.23 0 1 1 271 87.93 A 1.23 1.23 0 0 1 272.26 89.16 Z" stroke-linecap="round" />
</g>
		<g transform="matrix(1 0 0 1 -150.37 -41.73)" id="freepik--Device--inject-17"  >
<path style="stroke: none; stroke-width: 1; stroke-dasharray: none; stroke-linecap: butt; stroke-dashoffset: 0; stroke-linejoin: miter; stroke-miterlimit: 4; fill: rgb(232,232,232); fill-rule: nonzero; opacity: 1;"  transform=" translate(-224.63, -208.27)" d="M 224.66 276.64 A 68.37 68.37 0 1 1 293 208.28 A 68.44 68.44 0 0 1 224.66 276.64 Z m 0 -123.38 a 55 55 0 1 0 55 55 A 55.08 55.08 0 0 0 224.66 153.26 Z" stroke-linecap="round" />
</g>
		<g transform="matrix(1 0 0 1 -150.37 -41.72)" id="freepik--Device--inject-17"  >
<path style="stroke: none; stroke-width: 1; stroke-dasharray: none; stroke-linecap: butt; stroke-dashoffset: 0; stroke-linejoin: miter; stroke-miterlimit: 4; fill: rgb(146,227,169); fill-rule: nonzero; opacity: 1;"  transform=" translate(-224.63, -208.28)" d="M 227.3 147.16 h 0 A 6.83 6.83 0 0 0 233 154 a 54.53 54.53 0 1 1 -53.94 23.92 a 6.87 6.87 0 0 0 -1.41 -9.12 h 0 a 6.92 6.92 0 0 0 -10.16 1.57 a 68.36 68.36 0 1 0 67.74 -30 A 6.91 6.91 0 0 0 227.3 147.16 Z" stroke-linecap="round" />
</g>
		<g transform="matrix(1 0 0 1 -144.17 -39.33)" id="freepik--Device--inject-17"  >
<path style="stroke: none; stroke-width: 1; stroke-dasharray: none; stroke-linecap: butt; stroke-dashoffset: 0; stroke-linejoin: miter; stroke-miterlimit: 4; fill: rgb(38,50,56); fill-rule: nonzero; opacity: 1;"  transform=" translate(-230.83, -210.67)" d="M 282.3 194.22 a 7.25 7.25 0 0 0 -3.32 -1.77 a 11.35 11.35 0 0 1 -1.35 -0.52 a 6.18 6.18 0 0 1 -1.13 -0.9 c -1 -0.95 -2.32 -2.1 -3.92 -1.9 h -0.19 a 2.33 2.33 0 0 0 -0.47 0.14 l -0.15 0.06 l -0.32 0.18 l -0.14 0.09 c -0.12 0.09 -0.24 0.18 -0.35 0.28 a 0.2 0.2 0 0 1 -0.07 0.06 a 3.62 3.62 0 0 0 -0.36 0.42 l -0.06 0.06 l -0.69 0.91 h 0.13 a 9.05 9.05 0 0 0 -0.64 1.65 c -3.17 0.18 -10.11 0.61 -13.25 0.88 l -0.28 0 a 21.48 21.48 0 0 0 -7.8 2.79 l -1 0.51 c -0.3 0.15 -0.57 0.27 -0.8 0.37 a 5.17 5.17 0 0 1 -1.5 0.27 c -0.92 0 -2.06 0 -3.31 0 l -1.19 0 l -0.74 0 a 35.81 35.81 0 0 0 -3.85 0.08 c -0.55 0 -1.07 0.05 -1.59 0 a 23.89 23.89 0 0 1 -3.48 -0.39 l -0.92 -0.15 a 14.69 14.69 0 0 0 -5.43 -0.31 a 38.26 38.26 0 0 0 -4.78 1.5 l -1.09 0.39 l -0.44 0.15 l -0.48 0.16 l -0.39 0.13 l -0.56 0.15 l -0.3 0.08 a 4.52 4.52 0 0 1 -0.73 0.13 h 0 a 10.59 10.59 0 0 1 -4.74 -1.25 l -0.11 0 h 0 l -0.33 -0.14 c -2.2 -0.95 -9.63 -4.07 -12.84 -4 l -1 0.05 l -0.17 0 l -0.81 0.08 h -0.1 a 17.55 17.55 0 0 0 -2 0.34 a 4 4 0 0 0 -0.52 -2.3 a 1.85 1.85 0 0 1 -0.1 -0.54 a 5.59 5.59 0 0 0 -1.39 -3.23 c -1.67 -2 -2.92 -2.9 -5.9 -2.83 a 5.58 5.58 0 0 0 -4.55 2.28 l 0 0 a 3.73 3.73 0 0 1 -1 1.15 a 2.37 2.37 0 0 1 -0.74 0.32 c -0.58 0.18 -1.45 0.46 -1.35 1.57 a 3.53 3.53 0 0 0 1.11 1.79 a 3.27 3.27 0 0 0 0.06 1.94 c 0.1 0.23 0.23 0.44 0.35 0.66 c 0.34 0.59 0.54 1 0.37 1.27 a 4.17 4.17 0 0 1 -0.4 0.6 a 1.37 1.37 0 0 0 -0.41 1.05 a 0.79 0.79 0 0 0 0.41 0.52 l 0.88 0.47 a 23.19 23.19 0 0 1 1.42 1.88 a 1.89 1.89 0 0 0 2.36 1 a 3.79 3.79 0 0 0 1.95 -1 c 0.9 0.23 3.4 0.86 4.08 0.91 c 0.27 0 0.73 0.09 1.21 0.18 a 11.58 11.58 0 0 0 0.48 3.87 c 0.45 1.39 0.69 6.94 0.82 9.92 c 0.06 1.56 0.08 2 0.11 2.13 s 0 0.17 0 0.3 a 9.62 9.62 0 0 0 0 4.1 c 0.45 2.06 0.91 7.32 1 8.69 l -0.19 0.1 a 7.7 7.7 0 0 1 -1.07 0 a 3.62 3.62 0 0 0 -1.53 0.16 a 5.14 5.14 0 0 0 -1.28 1 c -0.72 0.18 -1.38 0.37 -1.77 0.5 c -0.64 0.21 -0.7 0.55 -0.65 0.8 s 0.13 0.59 1.54 0.59 c 0.34 0 0.75 0 1.25 -0.08 c 1.12 -0.11 2.46 -0.17 3.87 -0.17 h 0.35 a 2.64 2.64 0 0 0 2.14 -0.6 c 0.54 0 1.67 -0.1 1.92 -1 c 0.16 -0.56 0.44 -3.1 0.82 -7.55 c 0.38 -4.28 0.69 -7.16 0.9 -8.31 a 47 47 0 0 0 0 -6.61 a 4.92 4.92 0 0 0 2.11 0.85 a 11.37 11.37 0 0 0 2.88 -0.24 l 0.38 -0.09 a 7.31 7.31 0 0 0 1 0.28 l 0.08 0 l 0.3 0.07 l 0.18 0 h 0 a 28.43 28.43 0 0 0 3.58 0.43 c 3.72 0.25 5 0.51 5.11 0.51 s 0.85 0.1 2 0.17 h 0.13 c 0.79 0 1.75 0.08 2.78 0.08 H 221 c -0.12 0.64 -0.25 1.44 -0.36 2.36 V 215 c -0.05 0.39 -0.09 0.79 -0.13 1.21 a 0.28 0.28 0 0 0 0 0.09 c 0 0.36 -0.06 0.72 -0.08 1.1 c 0 0.11 0 0.22 0 0.33 c 0 0.42 0 0.83 0 1.26 v 0.16 c 0 0.39 0 0.77 0 1.16 c 0 0.13 0 0.25 0 0.37 c 0 0.45 0 0.9 0.08 1.36 c 0.46 5 1.85 10.58 3.9 12.23 l 0.21 0.18 a 2.22 2.22 0 0 0 0.41 0.2 l 0 0 h 0 a 2.11 2.11 0 0 0 0.44 0.09 a 6.66 6.66 0 0 0 1 0.06 h 0.11 l 0.55 0 h 0.32 l 0.56 0 l 0.44 0 h 0 l 1.15 -0.11 h 0 c 2.26 -0.23 5 -0.63 7.51 -1 l 0.3 -0.05 l 0.76 -0.13 l 0.85 -0.14 h 0.09 c 2.6 -0.45 4.68 -0.83 5.26 -0.94 a 23.6 23.6 0 0 1 5.81 -0.11 a 1.55 1.55 0 0 0 1 0.81 a 15.28 15.28 0 0 0 2.65 0.41 c 1 0.11 2.15 0.24 2.94 0.41 a 4.33 4.33 0 0 1 1.76 0.88 a 2.5 2.5 0 0 0 1 0.55 l 0 0.06 l 0.29 0 a 1.07 1.07 0 0 0 0.81 -0.41 c 0.3 -0.42 0.17 -0.95 -0.09 -2 l -0.05 -0.2 h 0 c -0.41 -1.63 -1.78 -3 -4.32 -5 c -0.91 -0.74 -1.87 -1.59 -2.71 -2.34 c -2.16 -1.94 -3 -2.61 -3.58 -2.39 h 0 c -0.24 0.09 -0.5 0.32 -1 1.15 l 0 0 l -0.06 0.09 l -0.27 0.46 h 0 c -0.35 0.61 -0.74 1.39 -1.17 2.32 l -1.74 -0.22 l -3.05 -0.38 a 47.3 47.3 0 0 0 -12.43 0.41 c 0 -0.22 0.08 -0.5 0.15 -0.83 c 0.12 -0.65 0.31 -1.49 0.5 -2.37 l 0.24 -1 c 0.25 -1.1 0.53 -2.32 0.8 -3.6 v 0 l 0.35 -1.73 l 0.09 -0.44 c 0 -0.07 0 -0.15 0 -0.23 c 0.05 -0.24 0.1 -0.49 0.14 -0.72 l 0 -0.19 c 0 -0.25 0.09 -0.51 0.13 -0.75 l 0 -0.11 c 0 -0.26 0.09 -0.52 0.14 -0.77 V 214 c 0 -0.26 0.09 -0.52 0.13 -0.77 v 0 c 0.16 -1 0.28 -1.82 0.38 -2.52 l 1.06 -0.17 c 0.74 -0.13 1.41 -0.26 2 -0.42 c 2.27 -0.61 8.83 -2.67 13.2 -4.12 l 1.54 -0.52 a 41.55 41.55 0 0 0 5 -2.19 a 38.85 38.85 0 0 1 9.13 -3.5 l 0.62 -0.14 l 0.88 -0.19 l 1.13 -0.25 c 2.8 -0.61 4.29 -0.91 4.92 -1 a 1.41 1.41 0 0 0 1 0.61 a 3.34 3.34 0 0 0 1.61 -0.3 a 3.71 3.71 0 0 1 1.1 -0.28 a 7.08 7.08 0 0 1 3 0.59 c 0.2 0.1 0.41 0.24 0.64 0.38 a 5.6 5.6 0 0 0 2.29 1 l 0 0.24 l 0.79 -0.34 a 1.52 1.52 0 0 0 0.33 -0.2 a 1.47 1.47 0 0 0 0.51 -1 A 7.91 7.91 0 0 0 282.3 194.22 Z" stroke-linecap="round" />
</g>
		<g transform="matrix(1 0 0 1 -160.7 57.65)" id="freepik--Device--inject-17"  >
<path style="stroke: none; stroke-width: 1; stroke-dasharray: none; stroke-linecap: butt; stroke-dashoffset: 0; stroke-linejoin: miter; stroke-miterlimit: 4; fill: rgb(38,50,56); fill-rule: nonzero; opacity: 1;"  transform=" translate(-214.3, -307.65)" d="M 206.44 323.62 v -3 l 8.07 -12.58 c 0.6 -0.94 1.16 -1.81 1.67 -2.63 a 13.2 13.2 0 0 0 1.25 -2.56 a 9 9 0 0 0 0.49 -3.12 a 7.1 7.1 0 0 0 -0.7 -3.45 a 2.61 2.61 0 0 0 -2.47 -1.25 a 3.13 3.13 0 0 0 -2.32 0.82 A 4.48 4.48 0 0 0 211.3 298 a 12.4 12.4 0 0 0 -0.32 2.86 V 302 h -4.19 v -1.1 a 14.12 14.12 0 0 1 0.77 -4.92 a 6.33 6.33 0 0 1 2.46 -3.19 a 8 8 0 0 1 4.53 -1.14 q 3.84 0 5.72 2.17 a 8.88 8.88 0 0 1 1.88 6 a 11.63 11.63 0 0 1 -0.49 3.57 a 13.9 13.9 0 0 1 -1.27 2.86 c -0.52 0.89 -1.1 1.8 -1.72 2.74 l -7.29 11.13 h 10 v 3.53 Z" stroke-linecap="round" />
</g>
		<g transform="matrix(1 0 0 1 -141.98 57.65)" id="freepik--Device--inject-17"  >
<path style="stroke: none; stroke-width: 1; stroke-dasharray: none; stroke-linecap: butt; stroke-dashoffset: 0; stroke-linejoin: miter; stroke-miterlimit: 4; fill: rgb(38,50,56); fill-rule: nonzero; opacity: 1;"  transform=" translate(-233.02, -307.65)" d="M 225.17 323.62 v -3 l 8.08 -12.58 c 0.6 -0.94 1.15 -1.81 1.66 -2.63 a 13.23 13.23 0 0 0 1.26 -2.56 a 9.29 9.29 0 0 0 0.49 -3.12 a 7.09 7.09 0 0 0 -0.71 -3.45 a 2.6 2.6 0 0 0 -2.47 -1.25 a 3.12 3.12 0 0 0 -2.31 0.82 A 4.41 4.41 0 0 0 230 298 a 12.41 12.41 0 0 0 -0.31 2.86 V 302 h -4.2 v -1.1 a 14.12 14.12 0 0 1 0.77 -4.92 a 6.34 6.34 0 0 1 2.47 -3.19 a 8 8 0 0 1 4.52 -1.14 c 2.57 0 4.47 0.72 5.73 2.17 a 8.93 8.93 0 0 1 1.88 6 a 11.94 11.94 0 0 1 -0.49 3.57 a 13.93 13.93 0 0 1 -1.28 2.86 c -0.52 0.89 -1.09 1.8 -1.72 2.74 l -7.29 11.13 h 10 v 3.53 Z" stroke-linecap="round" />
</g>
		<g transform="matrix(1 0 0 1 -158.2 -134.13)" id="freepik--Device--inject-17"  >
<path style="stroke: none; stroke-width: 1; stroke-dasharray: none; stroke-linecap: butt; stroke-dashoffset: 0; stroke-linejoin: miter; stroke-miterlimit: 4; fill: rgb(38,50,56); fill-rule: nonzero; opacity: 1;"  transform=" translate(-216.8, -115.87)" d="M 214.24 120.87 v -10 h 2.17 a 3.73 3.73 0 0 1 1.75 0.34 a 1.91 1.91 0 0 1 0.93 1 a 4.64 4.64 0 0 1 0.27 1.69 v 3.67 a 5.19 5.19 0 0 1 -0.27 1.79 a 2.19 2.19 0 0 1 -0.9 1.1 a 3.23 3.23 0 0 1 -1.67 0.38 Z m 1.39 -1 h 0.79 a 1.55 1.55 0 0 0 1.08 -0.3 a 1.26 1.26 0 0 0 0.39 -0.86 a 10.73 10.73 0 0 0 0.07 -1.37 V 114.1 a 6.11 6.11 0 0 0 -0.1 -1.25 a 1 1 0 0 0 -0.43 -0.7 a 1.9 1.9 0 0 0 -1.05 -0.23 h -0.75 Z" stroke-linecap="round" />
</g>
		<g transform="matrix(1 0 0 1 -152.01 -134.13)" id="freepik--Device--inject-17"  >
<path style="stroke: none; stroke-width: 1; stroke-dasharray: none; stroke-linecap: butt; stroke-dashoffset: 0; stroke-linejoin: miter; stroke-miterlimit: 4; fill: rgb(38,50,56); fill-rule: nonzero; opacity: 1;"  transform=" translate(-222.99, -115.87)" d="M 220.19 120.87 l 2.12 -10 h 1.34 l 2.13 10 h -1.32 l -0.45 -2.52 h -2 l -0.48 2.52 Z m 2 -3.51 h 1.66 l -0.83 -4.5 Z" stroke-linecap="round" />
</g>
		<g transform="matrix(1 0 0 1 -146.29 -134.12)" id="freepik--Device--inject-17"  >
<path style="stroke: none; stroke-width: 1; stroke-dasharray: none; stroke-linecap: butt; stroke-dashoffset: 0; stroke-linejoin: miter; stroke-miterlimit: 4; fill: rgb(38,50,56); fill-rule: nonzero; opacity: 1;"  transform=" translate(-228.71, -115.88)" d="M 228.05 120.87 v -3.53 l -2.16 -6.45 h 1.3 l 1.52 4.82 l 1.51 -4.82 h 1.3 l -2.14 6.45 v 3.53 Z" stroke-linecap="round" />
</g>
		<g transform="matrix(1 0 0 1 -138.61 -134.14)" id="freepik--Device--inject-17"  >
<path style="stroke: none; stroke-width: 1; stroke-dasharray: none; stroke-linecap: butt; stroke-dashoffset: 0; stroke-linejoin: miter; stroke-miterlimit: 4; fill: rgb(38,50,56); fill-rule: nonzero; opacity: 1;"  transform=" translate(-236.39, -115.86)" d="M 236.6 120.87 v -8.26 a 1.28 1.28 0 0 1 -0.28 0.08 l -0.6 0.12 l -0.59 0.11 l -0.27 0 v -1 l 0.49 -0.13 l 0.56 -0.21 a 3.06 3.06 0 0 0 0.56 -0.31 a 2.29 2.29 0 0 0 0.45 -0.43 h 1 v 10 Z" stroke-linecap="round" />
</g>
		<g transform="matrix(1 0 0 1 -213.43 104.66)" id="freepik--Device--inject-17"  >
<circle style="stroke: none; stroke-width: 1; stroke-dasharray: none; stroke-linecap: butt; stroke-dashoffset: 0; stroke-linejoin: miter; stroke-miterlimit: 4; fill: rgb(38,50,56); fill-rule: nonzero; opacity: 1;"  cx="0" cy="0" r="8.89" />
</g>
		<g transform="matrix(1 0 0 1 -141.17 106.88)" id="freepik--Device--inject-17"  >
<line style="stroke: rgb(38,50,56); stroke-width: 1; stroke-dasharray: none; stroke-linecap: butt; stroke-dashoffset: 0; stroke-linejoin: miter; stroke-miterlimit: 10; fill: none; fill-rule: nonzero; opacity: 1;"  x1="-54.465" y1="0" x2="54.465" y2="0" />
</g>
		<g transform="matrix(1 0 0 1 -213.43 129.11)" id="freepik--Device--inject-17"  >
<circle style="stroke: none; stroke-width: 1; stroke-dasharray: none; stroke-linecap: butt; stroke-dashoffset: 0; stroke-linejoin: miter; stroke-miterlimit: 4; fill: rgb(38,50,56); fill-rule: nonzero; opacity: 1;"  cx="0" cy="0" r="8.89" />
</g>
		<g transform="matrix(1 0 0 1 -141.17 131.34)" id="freepik--Device--inject-17"  >
<line style="stroke: rgb(38,50,56); stroke-width: 1; stroke-dasharray: none; stroke-linecap: butt; stroke-dashoffset: 0; stroke-linejoin: miter; stroke-miterlimit: 10; fill: none; fill-rule: nonzero; opacity: 1;"  x1="-54.465" y1="0" x2="54.465" y2="0" />
</g>
		<g transform="matrix(1 0 0 1 3.37 144.61)" id="freepik--Character--inject-17"  >
<path style="stroke: rgb(38,50,56); stroke-width: 1; stroke-dasharray: none; stroke-linecap: butt; stroke-dashoffset: 0; stroke-linejoin: miter; stroke-miterlimit: 10; fill: rgb(38,50,56); fill-rule: nonzero; opacity: 1;"  transform=" translate(-378.37, -394.61)" d="M 394.27 354.73 s 1.37 25 0.34 30.46 s -2.39 20.54 -3.08 28.41 s -2 22.93 -2.73 25.32 s -5.57 2.06 -5.57 2.06 s -7.78 -1 -9.49 -1 s -12 1 -12 1 a 19.18 19.18 0 0 1 4.45 -3.77 c 2.05 -1 9.43 0.7 10.53 -1.53 a 45.54 45.54 0 0 0 3.16 -13.87 c 0.34 -5.47 2.73 -73.58 2.73 -73.58 Z" stroke-linecap="round" />
</g>
		<g transform="matrix(1 0 0 1 111.46 82.6)" id="freepik--Character--inject-17"  >
<path style="stroke: rgb(38,50,56); stroke-width: 1; stroke-dasharray: none; stroke-linecap: butt; stroke-dashoffset: 0; stroke-linejoin: miter; stroke-miterlimit: 10; fill: rgb(255,255,255); fill-rule: nonzero; opacity: 1;"  transform=" translate(-486.46, -332.6)" d="M 327.93 300.38 s -2.42 6.4 -1 9.34 s 3.8 5.53 2.42 8.13 s -3.63 4.15 -2.08 5 s 3.29 1.73 3.29 1.73 a 85.31 85.31 0 0 1 5.19 6.92 c 1.21 2.07 2.25 3.28 6.22 2.59 a 11.59 11.59 0 0 0 6.4 -3.63 s 11.93 3.11 14.53 3.29 s 9.51 1.72 9.51 1.72 s 9.17 8 13 14.19 s 13.14 14.18 18.33 14.52 A 40.16 40.16 0 0 0 414.75 363 s 4.5 2.08 17.47 2.94 s 17.44 1.75 17.44 1.75 s 21.27 2.42 34.24 -0.86 s 28.19 -4.33 36.49 -6.57 s 35.28 -10.73 50 -15.74 s 27.24 -14.73 48.09 -19.4 s 27.07 -5.73 27.07 -5.73 s 2.18 -2.17 -0.31 -7.93 s -5.45 -6.23 -7 -6.23 s -37.82 2.12 -51.31 3.33 s -25.68 9.74 -32.08 12.34 s -21.11 -0.25 -36.5 1 s -27.85 -5 -38.57 -2.76 s -23.52 8.64 -30.09 9.16 s -13.29 -2.79 -18.48 -5 s -32 -13.67 -42.89 -13.32 S 372 312.31 372 312.31 s -1.73 -0.17 -2.59 -0.34 s -0.35 -3.29 -11.59 -10.21 S 330.53 295.54 327.93 300.38 Z" stroke-linecap="round" />
</g>
		<g transform="matrix(1 0 0 1 -27.13 49.97)" id="freepik--Character--inject-17"  >
<path style="stroke: rgb(38,50,56); stroke-width: 1; stroke-dasharray: none; stroke-linecap: butt; stroke-dashoffset: 0; stroke-linejoin: miter; stroke-miterlimit: 10; fill: rgb(38,50,56); fill-rule: nonzero; opacity: 1;"  transform=" translate(-347.87, -299.97)" d="M 333.47 288.27 a 15 15 0 0 1 -4 4.5 c -2.59 1.9 -6.74 1.21 -6.4 4.84 s 9.17 11.07 15.74 12.63 s 4 -0.87 4 -0.87 s 2.59 -4.67 5.88 -2.25 s 2.07 6.57 2.07 6.57 s 5.71 0.87 8.65 3.64 s 5.36 0.69 10.38 -3.12 S 372 304.87 371 302.8 s 0.34 -6.23 -4.85 -12.45 s -9 -9.17 -18.67 -9 A 17.28 17.28 0 0 0 333.47 288.27 Z" stroke-linecap="round" />
</g>
		<g transform="matrix(1 0 0 1 -10.89 34.54)" id="freepik--Character--inject-17"  >
<path style="stroke: rgb(38,50,56); stroke-width: 1; stroke-dasharray: none; stroke-linecap: butt; stroke-dashoffset: 0; stroke-linejoin: miter; stroke-miterlimit: 10; fill: rgb(38,50,56); fill-rule: nonzero; opacity: 1;"  transform=" translate(-364.11, -284.54)" d="M 370.9 291.3 l 10.94 5.46 c -1.62 -4.85 -6.21 -5.61 -8.9 -5.61 c 2.76 -0.51 7.09 -2.63 4.61 -11.18 c -3.52 -12.11 -24.61 -14.46 -28.91 -9.77 s -1.16 11.16 -1.16 11.16 a 115.89 115.89 0 0 0 6.63 9.94 c 4.3 5.85 16.89 11.5 21.09 9.37 S 370.9 291.3 370.9 291.3 Z" stroke-linecap="round" />
</g>
		<g transform="matrix(1 0 0 1 -25.69 69.14)" id="freepik--Character--inject-17"  >
<path style="stroke: rgb(38,50,56); stroke-width: 1; stroke-dasharray: none; stroke-linecap: butt; stroke-dashoffset: 0; stroke-linejoin: miter; stroke-miterlimit: 10; fill: none; fill-rule: nonzero; opacity: 1;"  transform=" translate(-349.31, -319.14)" d="M 350.76 313.69 a 8.94 8.94 0 0 1 -1 2.6 a 3.08 3.08 0 0 1 -1.9 1.73 s 1.21 3.8 0.69 6.57" stroke-linecap="round" />
</g>
		<g transform="matrix(1 0 0 1 -43.95 64.65)" id="freepik--Character--inject-17"  >
<line style="stroke: rgb(38,50,56); stroke-width: 1; stroke-dasharray: none; stroke-linecap: round; stroke-dashoffset: 0; stroke-linejoin: round; stroke-miterlimit: 4; fill: none; fill-rule: nonzero; opacity: 1;"  x1="-0.5200000000000102" y1="-1.2949999999999875" x2="0.5200000000000102" y2="1.2949999999999875" />
</g>
		<g transform="matrix(1 0 0 1 -44.9 60.91)" id="freepik--Character--inject-17"  >
<path style="stroke: rgb(38,50,56); stroke-width: 1; stroke-dasharray: none; stroke-linecap: butt; stroke-dashoffset: 0; stroke-linejoin: miter; stroke-miterlimit: 10; fill: none; fill-rule: nonzero; opacity: 1;"  transform=" translate(-330.1, -310.91)" d="M 328.63 311.45 a 1.79 1.79 0 0 1 2.94 -0.52" stroke-linecap="round" />
</g>
		<g transform="matrix(1 0 0 1 -41.27 74.6)" id="freepik--Character--inject-17"  >
<path style="stroke: rgb(38,50,56); stroke-width: 1; stroke-dasharray: none; stroke-linecap: butt; stroke-dashoffset: 0; stroke-linejoin: miter; stroke-miterlimit: 10; fill: none; fill-rule: nonzero; opacity: 1;"  transform=" translate(-333.73, -324.6)" d="M 332.6 325.8 s 1.39 0.35 2.25 -2.42" stroke-linecap="round" />
</g>
		<g transform="matrix(1 0 0 1 25.38 87.14)" id="freepik--Character--inject-17"  >
<path style="stroke: rgb(38,50,56); stroke-width: 1; stroke-dasharray: none; stroke-linecap: butt; stroke-dashoffset: 0; stroke-linejoin: miter; stroke-miterlimit: 10; fill: rgb(146,227,169); fill-rule: nonzero; opacity: 1;"  transform=" translate(-400.38, -337.14)" d="M 381.3 310.4 c -3.16 1.12 -10.48 4.89 -11.63 15.86 a 20.56 20.56 0 0 0 1.13 8.88 l 1.58 0.34 s 9.17 8 13 14.19 s 13.14 14.18 18.33 14.52 A 40.16 40.16 0 0 0 414.75 363 a 25.17 25.17 0 0 0 4.9 1.37 l 0.61 -0.33 s 10 -26.84 10.92 -40.81 c -5.19 -2.25 -32 -13.67 -42.89 -13.32 C 385.63 310 383.3 310.16 381.3 310.4 Z" stroke-linecap="round" />
</g>
		<g transform="matrix(1 0 0 1 15.7 78.22)" id="freepik--Character--inject-17"  >
<path style="stroke: rgb(38,50,56); stroke-width: 1; stroke-dasharray: none; stroke-linecap: butt; stroke-dashoffset: 0; stroke-linejoin: miter; stroke-miterlimit: 10; fill: rgb(255,255,255); fill-rule: nonzero; opacity: 1;"  transform=" translate(-390.7, -328.22)" d="M 382.75 344 a 19.53 19.53 0 0 0 15.54 -0.25 c 8.64 -3.7 13.58 -16.53 10.61 -22.45 s -15 -11.6 -23.93 -10.12 S 371.39 321.57 371.64 328 S 377.81 341.56 382.75 344 Z" stroke-linecap="round" />
</g>
		<g transform="matrix(1 0 0 1 -2.27 128.33)" id="freepik--Character--inject-17"  >
<path style="stroke: rgb(38,50,56); stroke-width: 1; stroke-dasharray: none; stroke-linecap: butt; stroke-dashoffset: 0; stroke-linejoin: miter; stroke-miterlimit: 10; fill: rgb(255,255,255); fill-rule: nonzero; opacity: 1;"  transform=" translate(-372.73, -378.33)" d="M 385 312.94 s -7.65 -1.73 -12.59 8.14 a 38.18 38.18 0 0 0 -2.22 27.64 c 2.22 6.91 2.9 40.48 3.22 41.19 s -2.06 6.65 -0.24 14.9 s 3.6 30.87 3.6 30.87 a 31.46 31.46 0 0 1 -6.4 2.87 c -2.9 0.79 -11.62 2.91 -14.74 4 s 1.16 1.62 6.56 1.07 S 373 443 375.49 443 s 5.53 0.68 7.74 -2 s 0.95 -7.79 0.88 -8.52 s 3.37 -35.54 4.4 -40.1 s 1.81 -14.08 1.81 -14.08 l 0.57 -41.16" stroke-linecap="round" />
</g>
		<g transform="matrix(1 0 0 1 143.57 150.31)" id="freepik--Character--inject-17"  >
<path style="stroke: rgb(38,50,56); stroke-width: 1; stroke-dasharray: none; stroke-linecap: butt; stroke-dashoffset: 0; stroke-linejoin: miter; stroke-miterlimit: 10; fill: rgb(255,255,255); fill-rule: nonzero; opacity: 1;"  transform=" translate(-518.57, -400.31)" d="M 471.41 365.05 s -4.69 18.51 -3 37.27 s 7.4 39 14.31 41.46 s 55.78 -6.42 64.91 -8.15 s 21.47 -0.25 21.47 -0.25 s -3.71 -11.1 -5.43 -12.58 s -2.72 -1.23 -22 -3.7 s -41.7 1.23 -43.43 1.72 s 2.72 -15.54 6.42 -33.56 s 4.93 -30.84 4.93 -30.84 Z" stroke-linecap="round" />
</g>
		<g transform="matrix(1 0 0 1 205.88 176.47)" id="freepik--Character--inject-17"  >
<path style="stroke: rgb(38,50,56); stroke-width: 1; stroke-dasharray: none; stroke-linecap: butt; stroke-dashoffset: 0; stroke-linejoin: miter; stroke-miterlimit: 10; fill: rgb(38,50,56); fill-rule: nonzero; opacity: 1;"  transform=" translate(-580.88, -426.47)" d="M 559.51 420.82 s 5.92 -12.83 7.9 -13.57 s 11.1 8.89 19.74 15.8 s 12.83 11.1 14.07 16 s 1.73 6.41 -0.74 6.66 s -4.44 -3.7 -10.12 -4.94 s -16 -1.72 -18.76 -2.71 s -2.46 -2.72 -2.46 -2.72 l -5.43 -12.58 Z" stroke-linecap="round" />
</g>
		<g transform="matrix(1 0 0 1 208.58 176.52)" id="freepik--Character--inject-17"  >
<path style="stroke: rgb(38,50,56); stroke-width: 1; stroke-dasharray: none; stroke-linecap: butt; stroke-dashoffset: 0; stroke-linejoin: miter; stroke-miterlimit: 10; fill: rgb(255,255,255); fill-rule: nonzero; opacity: 1;"  transform=" translate(-583.58, -426.52)" d="M 601.22 439.09 c -1.24 -4.94 -5.43 -9.13 -14.07 -16 s -17.77 -16.54 -19.74 -15.8 c -0.58 0.22 -1.51 1.49 -2.52 3.17 a 16 16 0 0 1 7 4.24 c 5.92 5.67 7.9 10.36 10.86 11.84 s 9.38 2.72 13.08 8.14 s 3.45 9.38 4.69 11.11 C 603 445.5 602.45 444 601.22 439.09 Z" stroke-linecap="round" />
</g>
		<g transform="matrix(1 0 0 1 131.96 150.31)" id="freepik--Character--inject-17"  >
<path style="stroke: rgb(38,50,56); stroke-width: 1; stroke-dasharray: none; stroke-linecap: butt; stroke-dashoffset: 0; stroke-linejoin: miter; stroke-miterlimit: 10; fill: rgb(146,227,169); fill-rule: nonzero; opacity: 1;"  transform=" translate(-506.96, -400.31)" d="M 545.7 436 c -12.68 2.35 -56.42 10.1 -62.94 7.77 c -6.9 -2.46 -12.58 -22.7 -14.31 -41.46 c -1.27 -13.77 0.92 -27.41 2.18 -33.68 c 0.45 -2.27 0.78 -3.58 0.78 -3.58 l 38.26 -8.64 s -1.18 12.21 -4.67 29.52 c -0.09 0.44 -0.19 0.88 -0.27 1.33 c -3.7 18 -8.14 34.06 -6.42 33.56 s 24.19 -4.19 43.43 -1.72 l 2.39 0.3 A 47.41 47.41 0 0 1 545.7 436 Z" stroke-linecap="round" />
</g>
		<g transform="matrix(1 0 0 1 115.15 121.17)" id="freepik--Character--inject-17"  >
<path style="stroke: rgb(38,50,56); stroke-width: 1; stroke-dasharray: none; stroke-linecap: butt; stroke-dashoffset: 0; stroke-linejoin: miter; stroke-miterlimit: 10; fill: rgb(38,50,56); fill-rule: nonzero; opacity: 1;"  transform=" translate(-490.15, -371.17)" d="M 509.67 356.41 s -1.18 12.21 -4.67 29.52 l -1.2 -3.13 c -6.81 -11.35 -26.59 -13.7 -33.17 -14.17 c 0.45 -2.27 0.78 -3.58 0.78 -3.58 Z" stroke-linecap="round" />
</g>
		<g transform="matrix(1 0 0 1 282.58 59.3)" id="freepik--Character--inject-17"  >
<path style="stroke: rgb(38,50,56); stroke-width: 1; stroke-dasharray: none; stroke-linecap: butt; stroke-dashoffset: 0; stroke-linejoin: miter; stroke-miterlimit: 10; fill: rgb(38,50,56); fill-rule: nonzero; opacity: 1;"  transform=" translate(-657.58, -309.3)" d="M 645.53 319.37 a 2.83 2.83 0 0 0 2.61 2.31 c 2.44 0.45 6 -2 8.88 -2 s 7.77 0.44 11.1 2.22 s 8.67 6.22 11.78 3.77 S 679 313 675.68 309 s -11.33 -5.33 -15.33 -7.32 s -9.55 -10.67 -16.66 -9.33 s -9.55 12.88 -9.55 12.88 s 6 -0.67 9.11 3.55 S 645.53 319.37 645.53 319.37 Z" stroke-linecap="round" />
</g>
		<g transform="matrix(1 0 0 1 284.61 59.16)" id="freepik--Character--inject-17"  >
<path style="stroke: rgb(38,50,56); stroke-width: 1; stroke-dasharray: none; stroke-linecap: butt; stroke-dashoffset: 0; stroke-linejoin: miter; stroke-miterlimit: 10; fill: rgb(255,255,255); fill-rule: nonzero; opacity: 1;"  transform=" translate(-659.61, -309.16)" d="M 679.16 326.11 a 3.47 3.47 0 0 0 0.74 -0.43 C 683 323.24 679 313 675.68 309 s -11.33 -5.33 -15.33 -7.32 s -9.55 -10.67 -16.66 -9.33 a 9.17 9.17 0 0 0 -5.49 3.75 c 1.34 -0.09 7.45 -0.42 10.6 1.36 c 3.56 2 8.89 6.44 13.55 7.32 s 12.88 4.45 15.1 11.78 C 678.93 321.44 679.32 324.25 679.16 326.11 Z" stroke-linecap="round" />
</g>
		<g transform="matrix(1 0 0 1 165.41 87.26)" id="freepik--Character--inject-17"  >
<path style="stroke: rgb(38,50,56); stroke-width: 1; stroke-dasharray: none; stroke-linecap: butt; stroke-dashoffset: 0; stroke-linejoin: miter; stroke-miterlimit: 10; fill: rgb(146,227,169); fill-rule: nonzero; opacity: 1;"  transform=" translate(-540.41, -337.26)" d="M 631.31 322.12 c -5.25 1.42 -5.47 1.34 -12.84 3 c -20.86 4.68 -33.4 14.38 -48.1 19.4 s -41.68 13.49 -50 15.74 s -23.53 3.29 -36.5 6.56 a 70.69 70.69 0 0 1 -15.42 1.71 c -4.08 0.07 -8 -0.05 -11.2 -0.23 c -8.33 -18.28 -8.23 -32.76 -7.34 -40.07 A 48.23 48.23 0 0 0 460 325.42 c 6.13 -2.16 13.3 -5 19.73 -6.35 c 10.72 -2.25 23.17 4 38.56 2.77 s 30.11 1.64 36.51 -1 s 18.6 -11.13 32.09 -12.34 c 8.63 -0.78 26.46 -1.71 38.73 -2.54 C 629.47 310.31 630.71 317.68 631.31 322.12 Z" stroke-linecap="round" />
</g>
		<g transform="matrix(1 0 0 1 84.01 96.98)" id="freepik--Character--inject-17"  >
<path style="stroke: rgb(38,50,56); stroke-width: 1; stroke-dasharray: none; stroke-linecap: butt; stroke-dashoffset: 0; stroke-linejoin: miter; stroke-miterlimit: 10; fill: rgb(38,50,56); fill-rule: nonzero; opacity: 1;"  transform=" translate(-459.01, -346.98)" d="M 468.48 368.51 c -4.08 0.07 -8 -0.05 -11.2 -0.23 c -8.33 -18.28 -8.23 -32.76 -7.34 -40.07 A 48.23 48.23 0 0 0 460 325.42 C 461.28 335.46 464.28 356.67 468.48 368.51 Z" stroke-linecap="round" />
</g>
</g>
</g>
</svg>